<svg width="125" height="122" viewBox="0 0 125 122" fill="none" xmlns="http://www.w3.org/2000/svg">
<path d="M0 0V121.975H125V0H0ZM5.20833 5.21261H119.792V116.762H5.20833V5.21261Z" fill="white"/>
<path d="M90.7812 51.2404C89.9999 50.8755 89.0103 50.7191 87.7603 50.7191C81.1978 50.7191 76.8228 55.7753 76.8228 64.1676C76.8228 73.7588 81.302 77.6161 87.1353 77.6161C88.3853 77.6161 89.7395 77.4598 90.7291 77.0427V51.2404H90.7812ZM67.4478 64.5846C67.4478 52.4393 75.2603 42.9523 88.0728 42.9523C89.1666 42.9523 89.7395 42.9523 90.7812 43.0566V29.5038C90.7812 29.191 91.0416 28.9825 91.302 28.9825H99.6874C100.104 28.9825 100.208 29.1389 100.208 29.3996V77.0427C100.208 78.4501 100.208 80.2224 100.469 82.1511C100.469 82.516 100.469 82.5681 100.156 82.7245C95.7812 84.8095 91.1978 85.7478 86.8228 85.7478C75.5207 85.7478 67.4478 78.7629 67.4478 64.5846V64.5846ZM49.6874 56.1402L64.2707 84.4446C64.5312 84.8616 64.3749 85.2787 63.9582 85.2787H54.8958C54.3228 85.2787 54.0624 85.1223 53.802 84.601C50.4687 77.7204 47.0833 70.5791 43.5937 63.1772H43.4895C40.3645 70.1621 36.927 77.7725 33.5937 84.6531C33.3333 85.0701 33.0728 85.2265 32.6562 85.2265H24.0103C23.4895 85.2265 23.4374 84.8095 23.6978 84.4968L37.9687 57.0263L24.1666 29.7123C23.8541 29.2953 24.1666 28.9304 24.5312 28.9304H33.4895C34.0103 28.9304 34.2708 29.0347 34.427 29.5038C37.7083 36.4366 41.0416 43.2651 44.1666 50.25H44.2708C47.2916 43.3693 50.6249 36.4366 53.802 29.6081C54.0624 29.191 54.2187 28.9304 54.7395 28.9304H63.1249C63.5416 28.9304 63.6978 29.2432 63.4374 29.7123L49.6874 56.1402V56.1402Z" fill="white"/>
</svg>
