<svg width="128" height="128" viewBox="0 0 128 128" fill="none" xmlns="http://www.w3.org/2000/svg">
<path d="M75.701 65.603C73.367 64.835 70.007 65 65.621 65H48V88H66.844C69.788 88 71.856 87.685 73.047 87.465C75.146 87.089 76.901 86.361 78.311 85.483C79.72 84.607 80.879 83.278 81.789 81.602C82.697 79.926 83.152 77.965 83.152 75.772C83.152 73.204 82.494 71.232 81.177 69.336C79.861 67.44 78.036 66.371 75.701 65.603V65.603ZM73.282 55.087C75.599 54.399 77.346 53.197 78.521 51.6C79.697 50.002 80.284 47.969 80.284 45.556C80.284 43.27 79.735 41.242 78.638 39.502C77.541 37.762 75.976 37.089 73.939 36.446C71.902 35.805 68.409 36 63.459 36H48V56H64.587C68.629 56 71.526 55.62 73.282 55.087V55.087ZM126 18.625C126 9.443 118.557 2 109.375 2H17.625C8.443 2 1 9.443 1 18.625V110.375C1 119.557 8.443 127 17.625 127H109.375C118.557 127 126 119.557 126 110.375V18.625ZM90.553 84.745C89.191 87.518 87.506 89.656 85.501 91.16C83.495 92.664 80.98 93.94 77.957 94.708C74.935 95.477 71.229 96 66.844 96H39V27H66.42C71.684 27 75.905 27.609 79.085 29.002C82.266 30.397 84.756 32.499 86.559 35.397C88.36 38.295 89.261 41.304 89.261 44.468C89.261 47.413 88.461 50.176 86.864 52.776C85.266 55.378 82.853 57.47 79.627 59.068C83.793 60.29 86.997 62.372 89.237 65.316C91.477 68.261 92.597 71.738 92.597 75.748C92.597 78.975 91.916 81.973 90.553 84.745V84.745Z" fill="white"/>
</svg>
