<svg width="128" height="128" viewBox="0 0 128 128" fill="none" xmlns="http://www.w3.org/2000/svg">
<path d="M117.5 33.5L117.8 33.2999C117.2 32.1999 116.3 31.2 115.4 30.7L67.1 2.89995C66.3 2.39995 65.2 2.19995 64 2.19995C62.8 2.19995 61.7 2.49995 60.9 2.89995L12.9 30.7999C11.2 31.7999 10 34.3 10 36.2V91.9C10 93 10.2 94.2 10.9 95.3L10.7 95.4C11.2 96.2 11.9 96.9 12.6 97.3L60.8 125.2C61.6 125.7 62.7 125.9 63.9 125.9C65.1 125.9 66.2 125.6 67 125.2L115 97.3C116.7 96.3 117.9 93.8 117.9 91.9V36.0999C118 35.2999 117.9 34.4 117.5 33.5V33.5ZM64 88.5C73.1 88.5 81.1 83.5 85.3 76.1L98.2 83.7C91.4 95.5 78.6 103.5 64 103.5C42.2 103.5 24.5 85.7999 24.5 64C24.5 42.2 42.2 24.5 64 24.5C78.7 24.5 91.5 32.6 98.3 44.5L85.3 52C81.1 44.5 73.1 39.5 64 39.5C50.5 39.5 39.5 50.5 39.5 64C39.5 77.5 50.5 88.5 64 88.5V88.5Z" fill="white"/>
</svg>
