<svg width="128" height="128" viewBox="0 0 128 128" fill="none" xmlns="http://www.w3.org/2000/svg">
<path d="M8.76001 1L18.815 113.883L63.933 126.463L109.177 113.837L119.24 1H8.76001V1ZM98.351 26.862L95.004 64.467L95.014 64.67L95 65.137V65.133L92.622 91.427L92.36 93.763L64 101.607V101.608L63.978 101.627L35.667 93.739L33.75 72H47.633L48.618 83.054L64.004 87.224L64 87.232V87.23L79.443 83.001L81.075 65H48.792L48.515 61.957L47.884 54.828L47.553 51H82.302L83.566 37H30.64L30.363 33.959L29.733 26.828L29.401 23H98.682L98.351 26.862V26.862Z" fill="white"/>
</svg>
