<svg width="128" height="128" viewBox="0 0 128 128" fill="none" xmlns="http://www.w3.org/2000/svg">
<path d="M126.67 98.44C122.11 99.6 119.29 98.49 116.76 94.69C111.08 86.18 104.81 78.06 98.76 69.79C97.98 68.72 97.17 67.67 96.16 66.34C89 76 81.85 85.2 75.14 94.77C72.74 98.19 70.22 99.68 65.74 98.47L92.66 62.34L67.6 29.71C71.91 28.87 74.89 29.3 77.53 33.16C83.36 41.68 89.79 49.79 96.2 58.37C102.65 49.82 109 41.7 115 33.26C117.41 29.84 120 28.54 124.33 29.8C121.05 34.15 117.84 38.43 114.61 42.68C110.25 48.41 105.97 54.21 101.45 59.82C99.84 61.82 100.1 63.12 101.54 65.01C109.9 76 118.16 87.1 126.67 98.44Z" fill="white"/>
<path d="M1.33005 61.74C2.05005 58.13 2.53005 54.45 3.53005 50.91C9.53005 29.48 34.13 20.57 51.03 33.85C60.93 41.64 63.3901 52.62 62.9001 65H7.10005C6.26005 87.21 22.2501 100.62 42.6301 93.78C49.7801 91.38 53.99 85.78 56.1 78.78C57.17 75.27 58.9401 74.72 62.2401 75.72C60.5501 84.48 56.7201 91.8 48.7201 96.38C36.7201 103.24 19.59 101.02 10.58 91.49C5.26005 85.89 3.00005 78.92 2.00005 71.39C1.85005 70.19 1.54005 69.01 1.30005 67.82C1.32005 65.7934 1.33005 63.7667 1.33005 61.74ZM7.20005 60.25H57.6301C57.3001 44.19 47.3001 32.78 33.6301 32.68C18.6301 32.56 7.85005 43.7 7.20005 60.25Z" fill="white"/>
</svg>
