<svg width="83" height="123" viewBox="0 0 83 123" fill="none" xmlns="http://www.w3.org/2000/svg">
<g clip-path="url(#clip0)">
<path d="M20.7541 123C32.2058 123 41.5 113.816 41.5 102.5V82H20.7541C9.30244 82 0.00830078 91.184 0.00830078 102.5C0.00830078 113.816 9.30244 123 20.7541 123Z" fill="white"/>
<path d="M0.00830078 61.5C0.00830078 50.184 9.30244 41 20.7541 41H41.5V82H20.7541C9.30244 82 0.00830078 72.816 0.00830078 61.5Z" fill="white"/>
<path d="M0.0102539 20.5C0.0102539 9.184 9.30439 0 20.7561 0H41.5019V41H20.7561C9.30439 41 0.0102539 31.816 0.0102539 20.5Z" fill="white"/>
<path d="M41.5 0H62.2459C73.6976 0 82.9917 9.184 82.9917 20.5C82.9917 31.816 73.6976 41 62.2459 41H41.5V0Z" fill="white"/>
<path d="M82.9917 61.5C82.9917 72.816 73.6976 82 62.2459 82C50.7941 82 41.5 72.816 41.5 61.5C41.5 50.184 50.7941 41 62.2459 41C73.6976 41 82.9917 50.184 82.9917 61.5Z" fill="white"/>
</g>
<defs>
<clipPath id="clip0">
<rect width="83" height="123" fill="white"/>
</clipPath>
</defs>
</svg>
