<svg width="126" height="126" viewBox="0 0 126 126" fill="none" xmlns="http://www.w3.org/2000/svg">
<g clip-path="url(#clip0)">
<path d="M5.2416 8.54287H120.582V120.758H5.2416V8.54287ZM0 126H125.849V3.30127H0V126ZM82.4292 47.0485C82.4292 46.6201 82.5804 46.4185 83.0592 46.4185H91.2996C91.728 46.4185 91.9296 46.5697 91.9296 47.0485V88.4269C91.9296 88.8553 91.8288 89.0569 91.2996 89.0569H83.16C82.6308 89.0569 82.4796 88.8049 82.4796 88.3765V47.0485H82.4292ZM81.8496 35.1289C81.8496 31.7773 84.2184 29.7865 87.192 29.7865C90.3924 29.7865 92.5344 31.9285 92.5344 35.1289C92.5344 38.5813 90.2916 40.4713 87.0912 40.4713C84.0672 40.4965 81.8496 38.6065 81.8496 35.1289ZM58.2624 64.2853C56.8008 58.4641 53.3232 45.7885 52.0128 39.6397H51.912C50.8032 45.7633 48.0312 56.1457 45.8388 64.2853H58.2624ZM43.6968 72.7777L39.564 88.5025C39.4632 88.9309 39.312 89.0317 38.7828 89.0317H31.0716C30.5424 89.0317 30.4416 88.8805 30.5424 88.2505L45.4356 36.1369C45.6876 35.2045 45.864 34.3477 45.9648 31.7773C45.9648 31.3993 46.116 31.2481 46.3932 31.2481H57.4056C57.7836 31.2481 57.9348 31.3489 58.0356 31.7773L74.718 88.3513C74.8188 88.7797 74.718 89.0317 74.2896 89.0317H65.5956C65.1672 89.0317 64.9152 88.9309 64.8144 88.5529L60.5052 72.7777H43.6968V72.7777Z" fill="white"/>
</g>
<defs>
<clipPath id="clip0">
<rect width="126" height="126" fill="white"/>
</clipPath>
</defs>
</svg>
