<svg width="128" height="128" viewBox="0 0 128 128" fill="none" xmlns="http://www.w3.org/2000/svg">
<path d="M47.617 98.12C28.425 103.482 59.294 114.559 83.732 104.089C79.729 102.533 76.858 100.738 76.858 100.738C65.961 102.798 60.906 102.96 51.014 101.83C42.85 100.895 47.617 98.12 47.617 98.12V98.12ZM80.806 87.66C66.362 90.439 58.019 90.35 47.452 89.26C39.281 88.415 44.63 84.455 44.63 84.455C23.493 91.471 56.397 99.432 85.939 90.791C82.799 89.685 80.806 87.66 80.806 87.66V87.66ZM92.125 27.085C92.126 27.085 49.394 37.754 69.802 61.272C75.826 68.207 68.222 74.442 68.222 74.442C68.222 74.442 83.511 66.551 76.491 56.665C69.932 47.45 64.904 42.872 92.125 27.085V27.085ZM102.123 108.229C102.123 108.229 105.652 111.139 98.235 113.388C84.133 117.66 39.529 118.948 27.14 113.559C22.69 111.621 31.039 108.934 33.666 108.367C36.405 107.774 37.969 107.882 37.969 107.882C33.017 104.395 5.95599 114.732 24.227 117.697C74.048 125.773 115.044 114.06 102.123 108.229V108.229ZM85 77.896C87.395 76.262 90.703 74.843 90.703 74.843C90.703 74.843 81.279 76.528 71.89 77.317C60.396 78.281 48.067 78.471 41.878 77.643C27.226 75.684 49.911 70.295 49.911 70.295C49.911 70.295 41.099 69.699 30.267 74.939C17.455 81.134 61.958 83.958 85 77.896ZM90.609 93.041C90.501 93.331 90.141 93.657 90.141 93.657C121.414 85.436 109.916 64.678 94.963 69.932C93.651 70.396 92.963 71.475 92.963 71.475C92.963 71.475 93.792 71.141 95.641 70.755C103.2 69.18 114.03 80.874 90.609 93.041ZM64.181 70.069C59.567 59.64 43.921 50.516 64.188 34.51C89.459 14.563 76.492 1.58704 76.492 1.58704C81.722 22.195 58.041 28.42 49.493 41.254C43.672 49.999 52.35 59.396 64.181 70.069V70.069ZM91.455 121.817C72.268 125.429 48.601 125.008 34.568 122.691C34.568 122.691 37.442 125.071 52.214 126.022C74.69 127.459 109.214 125.222 110.03 114.586C110.031 114.586 108.46 118.618 91.455 121.817V121.817Z" fill="white"/>
</svg>
