<svg width="136" height="136" viewBox="0 0 136 136" fill="none" xmlns="http://www.w3.org/2000/svg">
<path fill-rule="evenodd" clip-rule="evenodd" d="M103.191 97.7109V73.9373C103.191 61.2 96.3915 55.2728 87.3262 55.2728C80.0106 55.2728 76.7324 59.298 74.9055 62.1215V56.2471H61.1228C61.3055 60.1384 61.1228 97.7109 61.1228 97.7109H74.9055V74.5544C74.9055 73.3182 74.9948 72.08 75.3602 71.195C76.3548 68.7185 78.6222 66.1548 82.4282 66.1548C87.4175 66.1548 89.4108 69.9567 89.4108 75.5287V97.7129H103.191V97.7109ZM46.6033 50.5879C51.408 50.5879 54.402 47.4011 54.402 43.4205C54.3127 39.3547 51.408 36.2592 46.6947 36.2592C41.9813 36.2592 38.898 39.3527 38.898 43.4205C38.898 47.4011 41.89 50.5879 46.516 50.5879H46.6033ZM69.0149 129.91C35.3843 129.91 8.11938 102.645 8.11938 69.0149C8.11938 35.3823 35.3843 8.11938 69.0149 8.11938C102.645 8.11938 129.91 35.3823 129.91 69.0149C129.91 102.645 102.645 129.91 69.0149 129.91ZM53.4947 97.7109V56.2471H39.714V97.7109H53.4947Z" fill="white"/>
</svg>
