<svg width="17" height="17" viewBox="0 0 17 17" fill="none" xmlns="http://www.w3.org/2000/svg">
<g clip-path="url(#clip0)">
<path d="M16.6175 0.164967C16.658 0.194019 16.6952 0.226055 16.7301 0.260426C16.7318 0.261982 16.7336 0.263279 16.7352 0.264965C16.7366 0.266392 16.7379 0.268078 16.7393 0.269505C16.9297 0.461849 17.0332 0.72942 17.0332 1.03914C17.0332 1.21489 17 1.4036 16.9345 1.59984L12.119 16.0467C11.8641 16.811 11.4193 16.9503 11.1769 16.9653C10.9343 16.9803 10.4757 16.8969 10.1286 16.1701L8.39609 12.5424L4.3872 14.1658C4.37747 14.1698 4.36761 14.1735 4.35775 14.1767C3.81652 14.3571 3.32988 14.2845 3.02275 13.9772C2.82652 13.781 2.726 13.5116 2.726 13.2015C2.726 13.0261 2.75817 12.8378 2.82327 12.6424C2.82665 12.6324 2.83015 12.6226 2.83417 12.6129L4.45762 8.60389L0.830045 6.87149C0.136798 6.54037 0.0331683 6.10393 0.0331683 5.87319C0.0331683 5.6671 0.12292 5.1579 0.95339 4.88112L15.4003 0.065487C15.8761 -0.0931358 16.3084 -0.0578575 16.6175 0.164967ZM11.1101 15.8881C11.13 15.8487 11.1521 15.7971 11.1739 15.7317L15.7746 1.92992L7.98793 9.71646C8.22683 10.0005 8.42787 10.2975 8.56237 10.5792L11.0276 15.7409C11.0573 15.803 11.0854 15.8514 11.1101 15.8881ZM3.76373 12.971C3.70861 13.1429 3.71807 13.2403 3.72858 13.2714C3.75984 13.2819 3.85711 13.2914 4.02896 13.2363L7.96601 11.6419L7.66342 11.0085C7.37561 10.4057 6.5943 9.6245 5.99159 9.33657L5.35813 9.03398L3.76373 12.971ZM1.2683 5.82611C1.2028 5.8479 1.15131 5.86995 1.11188 5.88992C1.14859 5.9147 1.19697 5.94297 1.25935 5.97267L6.42089 8.43775C6.7026 8.57225 6.99948 8.77328 7.28366 9.01219L15.0703 1.22539L1.2683 5.82611Z" fill="#00C896"/>
</g>
<defs>
<clipPath id="clip0">
<rect width="17" height="17" fill="white" transform="matrix(-4.37114e-08 -1 -1 4.37114e-08 17 17)"/>
</clipPath>
</defs>
</svg>
