<svg width="128" height="128" viewBox="0 0 128 128" fill="none" xmlns="http://www.w3.org/2000/svg">
<path d="M125.477 122.783L122.861 120.246C120.382 116.954 117.193 114.062 113.846 111.661C111.177 109.745 105.185 107.157 104.071 104.052L103.866 103.857C105.759 103.643 107.969 102.959 109.716 102.49C112.65 101.704 115.072 101.907 118.102 101.125C119.468 100.735 121.001 100.344 122.001 99.954V99.174C121.001 97.603 119.574 95.523 117.904 94.101C113.535 90.381 108.863 86.664 103.953 83.564C101.23 81.846 97.912 80.729 95.027 79.272C94.056 78.781 92.375 78.526 91.733 77.71C90.216 75.778 89.405 73.328 88.235 71.077C85.786 66.36 83.386 61.209 81.216 56.246C79.736 52.862 78.773 49.526 76.927 46.49C68.067 31.923 58.532 23.132 43.76 14.49C40.615 12.652 36.831 11.927 32.831 10.977C30.687 10.848 28.54 10.717 26.394 10.586C25.083 10.04 23.72 8.43704 22.492 7.65904C17.596 4.56704 5.04297 -2.15796 1.41797 6.68404C-0.871029 12.265 4.83797 17.709 6.87997 20.538C8.31497 22.52 10.15 24.745 11.173 26.976C11.848 28.443 11.963 29.914 12.54 31.465C13.958 35.287 15.191 39.445 17.027 42.976C17.954 44.764 18.976 46.646 20.149 48.244C20.867 49.225 22.099 49.657 22.294 51.171C21.09 52.857 21.021 55.475 20.344 57.611C17.294 67.226 18.446 79.178 22.881 86.294C24.241 88.48 27.447 93.165 31.856 91.367C35.712 89.797 35.082 84.929 36.185 80.635C36.434 79.663 36 78.947 37 78.294V78.489C38 80.83 39.11 83.172 40.282 85.513C42.882 89.7 47.171 94.075 51.08 97.027C53.107 98.558 55 101.204 57 102.1V101.999H57.221C56.714 100.999 55.919 100.832 55.271 100.195C53.744 98.699 52.045 96.813 50.784 95.098C47.228 90.271 44.086 84.976 41.223 79.476C39.855 76.85 38.666 73.947 37.514 71.275C37.071 70.245 37.076 68.683 36.15 68.15C34.887 70.108 33.028 71.69 32.051 74.003C30.49 77.699 30.289 82.207 29.71 86.88C29.367 87.002 29.52 86.918 29.319 87.074C26.601 86.419 25.647 83.622 24.636 81.221C22.081 75.151 21.607 65.378 23.855 58.392C24.437 56.583 27.066 50.891 26.001 49.22C25.493 47.555 23.817 46.59 22.88 45.317C21.719 43.743 20.561 41.671 19.757 39.853C17.666 35.122 16.691 29.809 14.489 25.025C13.436 22.738 11.657 20.423 10.196 18.391C8.57897 16.138 6.76697 14.479 5.51197 11.756C5.06697 10.788 4.46097 9.23804 5.12197 8.24304C5.33197 7.57204 5.62897 7.29204 6.29297 7.07304C7.42597 6.20004 10.576 7.36304 11.756 7.85204C14.885 9.15204 17.497 10.352 20.148 12.108C21.419 12.952 22.707 13.998 24.245 14.998H26.001C28.748 14.998 31.825 15.23 34.392 16.01C38.927 17.389 42.992 19.552 46.684 21.883C57.93 28.985 67.125 39.103 73.416 51.161C74.428 53.103 74.866 54.96 75.757 57.019C77.555 61.172 79.821 65.447 81.61 69.508C83.396 73.561 85.136 77.65 87.66 81.022C88.987 82.794 94.111 83.746 96.44 84.731C98.073 85.42 100.748 86.14 102.294 87.071C105.247 88.853 108.108 90.975 110.88 92.926C112.264 93.9 116.52 96.04 116.733 97.804C109.87 97.616 104.629 98.256 100.148 100.145C98.875 100.682 96.843 100.697 96.635 102.292C97.335 103.025 97.444 104.121 98 105.023C99.069 106.753 100.876 109.075 102.488 110.291C104.25 111.621 106.064 113.042 107.952 114.193C111.311 116.24 115.059 117.41 118.293 119.461C120.199 120.671 122.251 122.194 124.108 123.558C125.028 124.233 124.999 125.282 126.999 125.705V125.511C126 124.716 126.053 123.618 125.477 122.783V122.783ZM29.514 23.465C28.083 23.438 27 23.622 26 23.854V24H26.198C26.881 25 28.086 26.33 28.929 27.538L30.881 31.646L31.074 31.459C32.283 30.606 32.837 29.248 32.83 27.168C32.347 26.659 32.274 26.022 31.856 25.414C31.298 24.605 30.217 24.146 29.514 23.465V23.465Z" fill="white"/>
</svg>
