<svg width="194" height="124" viewBox="0 0 194 124" fill="none" xmlns="http://www.w3.org/2000/svg">
<path d="M73.7875 0L51.0378 40.3108L73.7875 79.8235H120.085L142.037 40.3108L120.085 0H73.7875Z" fill="#00C896"/>
<path d="M47.9095 97.3116H50.8775L58.6055 117.192H55.3015L53.2015 111.788H45.5295L43.4575 117.192H40.1255L47.9095 97.3116ZM52.5855 109.464L49.3935 100.756L46.0895 109.464H52.5855ZM58.7779 109.884C58.7779 108.484 59.0579 107.214 59.6179 106.076C60.1965 104.918 60.9805 104.004 61.9699 103.332C62.9592 102.641 64.0979 102.296 65.3859 102.296C66.5059 102.296 67.5139 102.585 68.4099 103.164C69.3245 103.742 70.0339 104.461 70.5379 105.32V96.7516H73.6179V113.72C73.6179 114.074 73.6832 114.326 73.8139 114.476C73.9445 114.625 74.1592 114.709 74.4579 114.728V117.192C73.8792 117.285 73.4312 117.332 73.1139 117.332C72.5352 117.332 72.0405 117.173 71.6299 116.856C71.2379 116.52 71.0325 116.109 71.0139 115.624L70.9859 114.532C70.4259 115.465 69.6699 116.193 68.7179 116.716C67.7659 117.22 66.7765 117.472 65.7499 117.472C64.4059 117.472 63.2019 117.126 62.1379 116.436C61.0925 115.745 60.2712 114.83 59.6739 113.692C59.0765 112.534 58.7779 111.265 58.7779 109.884ZM70.5379 111.928V108.092C70.3139 107.494 69.9779 106.962 69.5299 106.496C69.0819 106.01 68.5685 105.628 67.9899 105.348C67.4299 105.068 66.8699 104.928 66.3099 104.928C65.4325 104.928 64.6672 105.17 64.0139 105.656C63.3792 106.122 62.8752 106.738 62.5019 107.504C62.1472 108.269 61.9699 109.081 61.9699 109.94C61.9699 110.836 62.1659 111.657 62.5579 112.404C62.9685 113.15 63.5192 113.748 64.2099 114.196C64.9005 114.625 65.6752 114.84 66.5339 114.84C67.0565 114.84 67.5979 114.718 68.1579 114.476C68.7365 114.214 69.2405 113.869 69.6699 113.44C70.0992 112.992 70.3885 112.488 70.5379 111.928ZM75.906 112.908C75.906 111.974 76.1673 111.162 76.69 110.472C77.2127 109.762 77.9407 109.221 78.874 108.848C79.826 108.456 80.918 108.26 82.15 108.26C82.8033 108.26 83.466 108.316 84.138 108.428C84.8287 108.521 85.4353 108.661 85.958 108.848V107.924C85.958 106.897 85.65 106.094 85.034 105.516C84.418 104.937 83.5313 104.648 82.374 104.648C81.5713 104.648 80.7967 104.788 80.05 105.068C79.3033 105.348 78.5287 105.758 77.726 106.3L76.69 104.228C77.6607 103.593 78.6313 103.117 79.602 102.8C80.5913 102.464 81.6273 102.296 82.71 102.296C84.67 102.296 86.21 102.818 87.33 103.864C88.4687 104.89 89.038 106.356 89.038 108.26V113.72C89.038 114.074 89.094 114.326 89.206 114.476C89.3367 114.625 89.5513 114.709 89.85 114.728V117.192C89.57 117.248 89.318 117.285 89.094 117.304C88.87 117.322 88.6833 117.332 88.534 117.332C87.862 117.332 87.358 117.173 87.022 116.856C86.7047 116.52 86.518 116.146 86.462 115.736L86.378 114.896C85.7433 115.717 84.9313 116.352 83.942 116.8C82.9527 117.248 81.954 117.472 80.946 117.472C79.9753 117.472 79.1073 117.276 78.342 116.884C77.5767 116.473 76.9793 115.922 76.55 115.232C76.1207 114.541 75.906 113.766 75.906 112.908ZM85.23 113.804C85.7153 113.318 85.958 112.861 85.958 112.432V110.752C84.8567 110.341 83.7367 110.136 82.598 110.136C81.478 110.136 80.5633 110.369 79.854 110.836C79.1633 111.284 78.818 111.89 78.818 112.656C78.818 113.29 79.07 113.878 79.574 114.42C80.0967 114.942 80.8433 115.204 81.814 115.204C82.4673 115.204 83.102 115.073 83.718 114.812C84.334 114.55 84.838 114.214 85.23 113.804ZM100.531 117.472C99.3547 117.472 98.3187 117.192 97.4227 116.632C96.5267 116.072 95.8173 115.344 95.2947 114.448V123.156H92.2147V102.548H94.9307V105.18C95.4907 104.302 96.2187 103.602 97.1147 103.08C98.0107 102.557 99.0093 102.296 100.111 102.296C101.455 102.296 102.64 102.65 103.667 103.36C104.712 104.05 105.533 104.974 106.131 106.132C106.728 107.27 107.027 108.512 107.027 109.856C107.027 111.274 106.747 112.562 106.187 113.72C105.627 114.858 104.861 115.773 103.891 116.464C102.92 117.136 101.8 117.472 100.531 117.472ZM99.5227 114.84C100.4 114.84 101.156 114.606 101.791 114.14C102.444 113.654 102.948 113.038 103.303 112.292C103.676 111.526 103.863 110.714 103.863 109.856C103.863 108.96 103.657 108.138 103.247 107.392C102.855 106.645 102.313 106.048 101.623 105.6C100.951 105.152 100.176 104.928 99.2987 104.928C98.776 104.928 98.2253 105.058 97.6467 105.32C97.0867 105.581 96.592 105.926 96.1627 106.356C95.7333 106.785 95.444 107.27 95.2947 107.812V111.648C95.668 112.544 96.2373 113.3 97.0027 113.916C97.7867 114.532 98.6267 114.84 99.5227 114.84ZM117.166 116.436C116.774 116.622 116.233 116.837 115.542 117.08C114.851 117.304 114.114 117.416 113.33 117.416C112.359 117.416 111.519 117.154 110.81 116.632C110.119 116.109 109.774 115.26 109.774 114.084V104.928H107.842V102.548H109.774V97.7316H112.854V102.548H116.046V104.928H112.854V113.104C112.891 113.626 113.05 114.009 113.33 114.252C113.629 114.476 113.993 114.588 114.422 114.588C114.851 114.588 115.262 114.513 115.654 114.364C116.046 114.214 116.335 114.093 116.522 114L117.166 116.436ZM118.739 100.14V96.7516H121.819V100.14H118.739ZM118.739 117.192V102.548H121.819V117.192H118.739ZM129.048 117.192L123.476 102.548H126.668L130.84 114.336L135.012 102.548H137.98L132.408 117.192H129.048ZM145.775 117.472C144.263 117.472 142.937 117.126 141.799 116.436C140.66 115.745 139.773 114.83 139.139 113.692C138.504 112.534 138.187 111.274 138.187 109.912C138.187 108.53 138.504 107.261 139.139 106.104C139.773 104.946 140.66 104.022 141.799 103.332C142.937 102.641 144.272 102.296 145.803 102.296C147.333 102.296 148.659 102.65 149.779 103.36C150.899 104.05 151.757 104.965 152.355 106.104C152.971 107.242 153.279 108.465 153.279 109.772C153.279 110.238 153.251 110.612 153.195 110.892H141.463C141.519 111.75 141.752 112.506 142.163 113.16C142.592 113.794 143.124 114.298 143.759 114.672C144.412 115.026 145.121 115.204 145.887 115.204C146.708 115.204 147.483 114.998 148.211 114.588C148.939 114.177 149.443 113.636 149.723 112.964L152.355 113.72C151.851 114.821 151.011 115.726 149.835 116.436C148.677 117.126 147.324 117.472 145.775 117.472ZM141.379 108.848H150.227C150.152 108.008 149.909 107.27 149.499 106.636C149.088 105.982 148.556 105.478 147.903 105.124C147.268 104.75 146.559 104.564 145.775 104.564C145.009 104.564 144.3 104.75 143.647 105.124C143.012 105.478 142.489 105.982 142.079 106.636C141.668 107.27 141.435 108.008 141.379 108.848Z" fill="#C8FCEA"/>
<g clip-path="url(#clip0)">
<path d="M96.5 16.5334C93.5728 16.5334 91.2 18.9063 91.2 21.8334C91.2 24.7606 93.5728 27.1334 96.5 27.1334C99.4271 27.1334 101.8 24.7606 101.8 21.8334C101.8 18.9063 99.4271 16.5334 96.5 16.5334ZM96.5 25.3668C94.5485 25.3668 92.9666 23.7849 92.9666 21.8334C92.9666 19.882 94.5485 18.3001 96.5 18.3001C98.4514 18.3001 100.033 19.882 100.033 21.8334C100.033 22.7705 99.661 23.6693 98.9984 24.3319C98.3358 24.9945 97.4371 25.3668 96.5 25.3668V25.3668Z" fill="white"/>
<path d="M100.033 52.7501H99.15V51.8668C99.15 50.8911 98.359 50.1001 97.3833 50.1001H95.6166C94.6409 50.1001 93.85 50.8911 93.85 51.8668V52.7501H92.9666C91.9909 52.7501 91.2 53.5411 91.2 54.5168V56.2834C91.2 57.2591 91.9909 58.0501 92.9666 58.0501H93.85V58.9334C93.85 59.9091 94.6409 60.7001 95.6166 60.7001H97.3833C98.359 60.7001 99.15 59.9091 99.15 58.9334V58.0501H100.033C101.009 58.0501 101.8 57.2591 101.8 56.2834V54.5168C101.8 53.5411 101.009 52.7501 100.033 52.7501ZM100.033 56.2834H98.2666C97.7788 56.2834 97.3833 56.6789 97.3833 57.1668V58.9334H95.6166V57.1668C95.6166 56.6789 95.2211 56.2834 94.7333 56.2834H92.9666V54.5168H94.7333C95.2211 54.5168 95.6166 54.1213 95.6166 53.6334V51.8668H97.3833V53.6334C97.3833 54.1213 97.7788 54.5168 98.2666 54.5168H100.033V56.2834Z" fill="white"/>
<path d="M120.35 24.4834C121.233 24.4834 121.631 23.9269 122.47 23.0877C122.804 22.756 122.992 22.3044 122.992 21.8334C122.992 21.3623 122.804 20.9108 122.47 20.579L121.586 19.6957C121.257 19.3693 120.813 19.1853 120.35 19.1834H104.927C103.619 15.0224 99.4702 12.4388 95.1592 13.1006C90.8482 13.7625 87.6655 17.4718 87.6664 21.8334V38.864L86.8272 37.9807L86.6329 36.2847C86.5395 35.4679 85.895 34.8234 85.0782 34.73L83.7797 34.5799L83.6295 33.3167C83.5362 32.4999 82.8917 31.8554 82.0749 31.762L80.7764 31.6119L80.5997 30.331C80.5086 29.5049 79.854 28.854 79.0274 28.7675L77.7465 28.6262L77.6052 27.3454C77.5157 26.5251 76.8703 25.876 76.0505 25.7819L74.7874 25.6317L74.699 24.7484C74.5807 23.8877 73.9989 23.1617 73.1846 22.8589C72.3703 22.5561 71.4554 22.7254 70.8035 23.2997C70.3094 23.7234 70.0175 24.3362 69.9997 24.9869C69.9145 28.2904 70.6973 31.5585 72.2699 34.465C74.6195 38.7757 74.0984 37.7775 87.6664 51.3455V51.8667H81.483C80.5073 51.8667 79.7164 52.6577 79.7164 53.6334H76.183C76.183 52.6577 75.3921 51.8667 74.4164 51.8667H71.7664C70.7906 51.8667 69.9997 52.6577 69.9997 53.6334C69.9997 56.5605 72.3726 58.9334 75.2997 58.9334H87.843C88.7461 63.3808 92.8722 66.4203 97.3874 65.9642C101.903 65.5081 105.338 61.7049 105.333 57.1667V39.5619L110.951 45.1887C113.349 47.5828 116.198 49.4773 119.334 50.7625C120.318 51.1566 121.443 50.9259 122.192 50.1761C122.942 49.4264 123.173 48.3019 122.779 47.3175C121.494 44.1821 119.599 41.3328 117.205 38.9347L105.333 27.0715V24.4834H120.35ZM120.35 20.95L121.233 21.8334L120.35 22.7167H105.333C105.363 22.1282 105.363 21.5385 105.333 20.95H120.35ZM73.8245 33.6259C72.3957 30.9914 71.6858 28.027 71.7664 25.031C71.8028 24.7343 72.0548 24.5114 72.3538 24.5114C72.6527 24.5114 72.9047 24.7343 72.9412 25.031L73.0295 25.8614C73.1388 26.6673 73.7842 27.2945 74.593 27.3807L75.8915 27.5397L76.0329 28.8205C76.1239 29.6467 76.7785 30.2976 77.6052 30.384L78.886 30.5254L79.0274 31.815C79.1184 32.6412 79.773 33.2921 80.5997 33.3785L81.8982 33.5199L82.0484 34.836C82.1493 35.646 82.792 36.2814 83.603 36.373L84.9015 36.5232L85.1312 38.5284C85.1753 38.9524 85.193 38.864 87.684 41.355V48.8545C75.3704 36.5497 75.9445 37.5302 73.8245 33.6259V33.6259ZM75.2997 57.1667C73.3483 57.1667 71.7664 55.5848 71.7664 53.6334H74.4164C74.4164 54.6091 75.2073 55.4 76.183 55.4H79.7164C80.6921 55.4 81.483 54.6091 81.483 53.6334H87.6664V57.1667H75.2997ZM103.566 57.1667C103.566 61.0695 100.402 64.2334 96.4997 64.2334C92.5969 64.2334 89.433 61.0695 89.433 57.1667V21.8334C89.433 17.9306 92.5969 14.7667 96.4997 14.7667C100.402 14.7667 103.566 17.9306 103.566 21.8334V57.1667ZM115.933 40.189C118.112 42.3639 119.844 44.9448 121.03 47.7857L107.78 34.5357C107.564 34.2836 107.225 34.1738 106.902 34.2514C106.58 34.3291 106.328 34.581 106.25 34.9037C106.172 35.2264 106.282 35.5653 106.534 35.7812L119.784 49.0312C116.949 47.8367 114.374 46.0992 112.205 43.9167L105.333 37.0709V29.5625L115.933 40.189Z" fill="white"/>
<path d="M92.0833 31.5502C92.5711 31.5502 92.9666 31.1547 92.9666 30.6668V28.9002C92.9666 28.4123 92.5711 28.0168 92.0833 28.0168C91.5954 28.0168 91.2 28.4123 91.2 28.9002V30.6668C91.2 31.1547 91.5954 31.5502 92.0833 31.5502Z" fill="white"/>
<path d="M92.0833 49.2169C92.5711 49.2169 92.9666 48.8214 92.9666 48.3336V34.2002C92.9666 33.7124 92.5711 33.3169 92.0833 33.3169C91.5954 33.3169 91.2 33.7124 91.2 34.2002V48.3336C91.2 48.8214 91.5954 49.2169 92.0833 49.2169Z" fill="white"/>
</g>
<defs>
<clipPath id="clip0">
<rect width="53" height="53" fill="white" transform="translate(70 13)"/>
</clipPath>
</defs>
</svg>
