<svg width="193" height="121" viewBox="0 0 193 121" fill="none" xmlns="http://www.w3.org/2000/svg">
<path d="M73.413 0L50.6633 40.3108L73.413 79.8235H119.711L141.662 40.3108L119.711 0H73.413Z" fill="#00C896"/>
<path d="M48.6632 107.112C48.6632 105.898 48.8778 104.704 49.3072 103.528C49.7365 102.352 50.3618 101.288 51.1832 100.336C52.0232 99.3836 53.0312 98.6276 54.2072 98.0676C55.4018 97.489 56.7645 97.1996 58.2952 97.1996C60.0872 97.1996 61.6365 97.601 62.9432 98.4037C64.2498 99.2063 65.2205 100.252 65.8552 101.54L63.3912 103.192C63.0178 102.389 62.5418 101.764 61.9632 101.316C61.4032 100.849 60.7872 100.522 60.1152 100.336C59.4618 100.13 58.8178 100.028 58.1832 100.028C57.1378 100.028 56.2232 100.242 55.4392 100.672C54.6552 101.082 53.9925 101.633 53.4512 102.324C52.9285 103.014 52.5272 103.789 52.2472 104.648C51.9858 105.506 51.8552 106.365 51.8552 107.224C51.8552 108.512 52.1258 109.716 52.6672 110.836C53.2272 111.937 53.9832 112.833 54.9352 113.524C55.9058 114.196 57.0165 114.532 58.2672 114.532C58.9018 114.532 59.5645 114.42 60.2552 114.196C60.9458 113.972 61.5805 113.626 62.1592 113.16C62.7378 112.674 63.2045 112.04 63.5592 111.256L66.1632 112.74C65.7525 113.729 65.1085 114.569 64.2312 115.26C63.3725 115.95 62.4018 116.473 61.3192 116.828C60.2552 117.182 59.2005 117.36 58.1552 117.36C56.7552 117.36 55.4765 117.07 54.3192 116.492C53.1618 115.894 52.1632 115.11 51.3232 114.14C50.4832 113.15 49.8298 112.049 49.3632 110.836C48.8965 109.604 48.6632 108.362 48.6632 107.112ZM67.9718 111.508V102.548H71.0518V110.892C71.0518 113.524 71.9851 114.84 73.8518 114.84C74.7291 114.84 75.5598 114.569 76.3438 114.028C77.1278 113.468 77.7345 112.684 78.1638 111.676V102.548H81.2438V113.72C81.2438 114.074 81.3091 114.326 81.4398 114.476C81.5705 114.625 81.7851 114.709 82.0838 114.728V117.192C81.7665 117.248 81.5051 117.285 81.2998 117.304C81.0945 117.322 80.8985 117.332 80.7118 117.332C80.1518 117.332 79.6851 117.182 79.3118 116.884C78.9385 116.585 78.7238 116.184 78.6678 115.68L78.6118 114.224C77.9585 115.288 77.1091 116.1 76.0638 116.66C75.0185 117.201 73.8705 117.472 72.6198 117.472C71.0891 117.472 69.9318 116.968 69.1478 115.96C68.3638 114.952 67.9718 113.468 67.9718 111.508ZM92.8463 105.208C91.6516 105.245 90.5876 105.525 89.6543 106.048C88.7396 106.552 88.0863 107.28 87.6943 108.232V117.192H84.6143V102.548H87.4703V105.824C87.9743 104.816 88.637 104.013 89.4583 103.416C90.2796 102.8 91.1476 102.464 92.0623 102.408C92.2303 102.408 92.3796 102.408 92.5103 102.408C92.641 102.408 92.753 102.417 92.8463 102.436V105.208ZM94.527 100.14V96.7516H97.607V100.14H94.527ZM94.527 117.192V102.548H97.607V117.192H94.527ZM107.328 117.472C105.798 117.472 104.463 117.126 103.324 116.436C102.204 115.726 101.336 114.802 100.72 113.664C100.104 112.506 99.7962 111.246 99.7962 109.884C99.7962 108.521 100.104 107.27 100.72 106.132C101.355 104.974 102.232 104.05 103.352 103.36C104.491 102.65 105.816 102.296 107.328 102.296C108.84 102.296 110.156 102.65 111.276 103.36C112.415 104.05 113.292 104.974 113.908 106.132C114.543 107.27 114.86 108.521 114.86 109.884C114.86 111.246 114.552 112.506 113.936 113.664C113.32 114.802 112.443 115.726 111.304 116.436C110.184 117.126 108.859 117.472 107.328 117.472ZM102.96 109.912C102.96 110.845 103.156 111.685 103.548 112.432C103.94 113.178 104.463 113.766 105.116 114.196C105.77 114.625 106.507 114.84 107.328 114.84C108.131 114.84 108.859 114.625 109.512 114.196C110.184 113.748 110.716 113.15 111.108 112.404C111.5 111.657 111.696 110.817 111.696 109.884C111.696 108.95 111.5 108.11 111.108 107.364C110.716 106.617 110.184 106.029 109.512 105.6C108.859 105.152 108.131 104.928 107.328 104.928C106.526 104.928 105.788 105.152 105.116 105.6C104.463 106.029 103.94 106.626 103.548 107.392C103.156 108.138 102.96 108.978 102.96 109.912ZM116.892 111.508V102.548H119.972V110.892C119.972 113.524 120.905 114.84 122.772 114.84C123.649 114.84 124.48 114.569 125.264 114.028C126.048 113.468 126.655 112.684 127.084 111.676V102.548H130.164V113.72C130.164 114.074 130.229 114.326 130.36 114.476C130.491 114.625 130.705 114.709 131.004 114.728V117.192C130.687 117.248 130.425 117.285 130.22 117.304C130.015 117.322 129.819 117.332 129.632 117.332C129.072 117.332 128.605 117.182 128.232 116.884C127.859 116.585 127.644 116.184 127.588 115.68L127.532 114.224C126.879 115.288 126.029 116.1 124.984 116.66C123.939 117.201 122.791 117.472 121.54 117.472C120.009 117.472 118.852 116.968 118.068 115.96C117.284 114.952 116.892 113.468 116.892 111.508ZM138.742 117.472C137.51 117.472 136.344 117.266 135.242 116.856C134.141 116.445 133.198 115.848 132.414 115.064L133.562 112.992C134.402 113.738 135.242 114.28 136.082 114.616C136.922 114.952 137.772 115.12 138.63 115.12C139.489 115.12 140.189 114.961 140.73 114.644C141.272 114.308 141.542 113.822 141.542 113.188C141.542 112.74 141.402 112.394 141.122 112.152C140.842 111.909 140.432 111.713 139.89 111.564C139.368 111.414 138.733 111.228 137.986 111.004C136.941 110.686 136.064 110.36 135.354 110.024C134.645 109.669 134.113 109.24 133.758 108.736C133.404 108.232 133.226 107.588 133.226 106.804C133.226 105.385 133.758 104.284 134.822 103.5C135.886 102.697 137.277 102.296 138.994 102.296C140.058 102.296 141.038 102.464 141.934 102.8C142.849 103.117 143.652 103.621 144.342 104.312L143.026 106.356C141.757 105.198 140.357 104.62 138.826 104.62C138.154 104.62 137.529 104.75 136.95 105.012C136.39 105.273 136.11 105.758 136.11 106.468C136.11 107.065 136.362 107.494 136.866 107.756C137.37 108.017 138.117 108.297 139.106 108.596C140.226 108.932 141.188 109.268 141.99 109.604C142.812 109.921 143.437 110.341 143.866 110.864C144.314 111.368 144.538 112.068 144.538 112.964C144.538 114.382 144.006 115.493 142.942 116.296C141.878 117.08 140.478 117.472 138.742 117.472Z" fill="#C8FCEA"/>
<path d="M106 13C100.699 13 95.7737 15.2837 92.3425 19.3023C90.1352 18.121 87.6828 17.5 85.1875 17.5C76.813 17.5 70 24.313 70 32.6875C70 41.0621 76.813 47.875 85.1875 47.875H85.318C86.6815 51.2725 89.9192 53.5 93.625 53.5C97.054 53.5 100.166 51.5177 101.666 48.4735C103.082 48.8223 104.535 49 106 49C115.925 49 124 40.9247 124 30.9999C124 21.0751 115.925 13 106 13ZM105.998 46.75C104.416 46.75 102.852 46.516 101.347 46.0502C100.775 45.8725 100.159 46.183 99.9565 46.75C99.0025 49.441 96.4578 51.25 93.625 51.25C90.6235 51.25 88.0338 49.2948 87.181 46.3878C87.0392 45.9064 86.4385 45.5913 85.9255 45.5913H85.8399C85.6217 45.607 85.4057 45.6229 85.1852 45.6229C78.0504 45.6229 72.2476 39.8179 72.2476 32.6853C72.2476 25.5528 78.0505 19.7478 85.1853 19.7478C87.5905 19.7478 89.9508 20.4273 92.0117 21.712C92.5023 22.018 93.1457 21.9032 93.499 21.442C96.5162 17.5068 101.072 15.2501 105.998 15.2501C114.68 15.2501 121.748 22.3151 121.748 31C121.748 39.685 114.68 46.75 105.998 46.75Z" fill="white"/>
<path d="M85.75 53.5C83.2682 53.5 81.25 55.5182 81.25 58C81.25 60.4818 83.2682 62.5001 85.75 62.5001C88.2318 62.5001 90.2501 60.4818 90.2501 58C90.2501 55.5182 88.2318 53.5 85.75 53.5ZM85.75 60.25C84.508 60.25 83.5001 59.2397 83.5001 58C83.5001 56.7604 84.508 55.7501 85.75 55.7501C86.992 55.7501 88 56.7604 88 58C88 59.2397 86.992 60.25 85.75 60.25Z" fill="white"/>
<path d="M75.625 60.25C73.7642 60.25 72.25 61.7642 72.25 63.625C72.25 65.4858 73.7642 67 75.625 67C77.4858 67 79 65.4858 79 63.625C79 61.7642 77.4858 60.25 75.625 60.25ZM75.625 64.75C75.0062 64.75 74.5 64.246 74.5 63.625C74.5 63.004 75.0062 62.5 75.625 62.5C76.2438 62.5 76.75 63.004 76.75 63.625C76.75 64.246 76.2438 64.75 75.625 64.75Z" fill="white"/>
</svg>
