<svg width="193" height="121" viewBox="0 0 193 121" fill="none" xmlns="http://www.w3.org/2000/svg">
<path d="M73.0385 0L50.2888 40.3108L73.0385 79.8235H119.336L141.288 40.3108L119.336 0H73.0385Z" fill="#00C896"/>
<path d="M57.1437 117.192V97.3116H64.1997C66.3463 97.3116 68.129 97.7596 69.5477 98.6556C70.985 99.533 72.0677 100.728 72.7957 102.24C73.5237 103.733 73.8877 105.394 73.8877 107.224C73.8877 109.24 73.4863 110.994 72.6837 112.488C71.881 113.981 70.7517 115.138 69.2957 115.96C67.8583 116.781 66.1597 117.192 64.1997 117.192H57.1437ZM70.6957 107.224C70.6957 105.824 70.4343 104.592 69.9117 103.528C69.4077 102.464 68.6703 101.624 67.6997 101.008C66.7477 100.392 65.581 100.084 64.1997 100.084H60.2797V114.42H64.1997C65.5997 114.42 66.7757 114.102 67.7277 113.468C68.6983 112.833 69.4357 111.974 69.9397 110.892C70.4437 109.809 70.6957 108.586 70.6957 107.224ZM84.4393 105.208C83.2446 105.245 82.1806 105.525 81.2473 106.048C80.3326 106.552 79.6793 107.28 79.2873 108.232V117.192H76.2073V102.548H79.0633V105.824C79.5673 104.816 80.23 104.013 81.0513 103.416C81.8726 102.8 82.7406 102.464 83.6553 102.408C83.8233 102.408 83.9726 102.408 84.1033 102.408C84.234 102.408 84.346 102.417 84.4393 102.436V105.208ZM86.1199 100.14V96.7516H89.2V100.14H86.1199ZM86.1199 117.192V102.548H89.2V117.192H86.1199ZM96.4292 117.192L90.8572 102.548H94.0492L98.2212 114.336L102.393 102.548H105.361L99.7892 117.192H96.4292ZM113.155 117.472C111.643 117.472 110.318 117.126 109.179 116.436C108.041 115.745 107.154 114.83 106.519 113.692C105.885 112.534 105.567 111.274 105.567 109.912C105.567 108.53 105.885 107.261 106.519 106.104C107.154 104.946 108.041 104.022 109.179 103.332C110.318 102.641 111.653 102.296 113.183 102.296C114.714 102.296 116.039 102.65 117.159 103.36C118.279 104.05 119.138 104.965 119.735 106.104C120.351 107.242 120.659 108.465 120.659 109.772C120.659 110.238 120.631 110.612 120.575 110.892H108.843C108.899 111.75 109.133 112.506 109.543 113.16C109.973 113.794 110.505 114.298 111.139 114.672C111.793 115.026 112.502 115.204 113.267 115.204C114.089 115.204 114.863 114.998 115.591 114.588C116.319 114.177 116.823 113.636 117.103 112.964L119.735 113.72C119.231 114.821 118.391 115.726 117.215 116.436C116.058 117.126 114.705 117.472 113.155 117.472ZM108.759 108.848H117.607C117.533 108.008 117.29 107.27 116.879 106.636C116.469 105.982 115.937 105.478 115.283 105.124C114.649 104.75 113.939 104.564 113.155 104.564C112.39 104.564 111.681 104.75 111.027 105.124C110.393 105.478 109.87 105.982 109.459 106.636C109.049 107.27 108.815 108.008 108.759 108.848ZM135.744 117.192H132.664V108.988C132.664 107.606 132.44 106.608 131.992 105.992C131.562 105.357 130.918 105.04 130.06 105.04C129.462 105.04 128.865 105.189 128.268 105.488C127.689 105.786 127.166 106.197 126.7 106.72C126.233 107.242 125.897 107.83 125.692 108.484V117.192H122.612V102.548H125.412V105.488C125.972 104.517 126.784 103.742 127.848 103.164C128.912 102.585 130.088 102.296 131.376 102.296C132.533 102.296 133.429 102.576 134.064 103.136C134.698 103.677 135.137 104.396 135.38 105.292C135.622 106.188 135.744 107.177 135.744 108.26V117.192Z" fill="#C8FCEA"/>
<g clip-path="url(#clip0)">
<path d="M97.2859 39.7153C96.8888 39.3182 96.2459 39.3182 95.8488 39.7153C95.4527 40.1114 95.4527 40.7543 95.8488 41.1514C96.2459 41.5475 96.8888 41.5475 97.2859 41.1514C97.682 40.7543 97.682 40.1114 97.2859 39.7153Z" fill="white"/>
<path d="M110.212 26.7884C108.227 24.804 105.015 24.8039 103.03 26.7884C101.051 28.7678 101.05 31.9893 103.03 33.9703C105.01 35.9491 108.232 35.9499 110.212 33.9701C112.196 31.9858 112.196 28.773 110.212 26.7884ZM108.775 32.5337C107.588 33.7214 105.655 33.7214 104.467 32.5339C103.279 31.3454 103.279 29.4123 104.466 28.2247C105.657 27.0341 107.585 27.0339 108.775 28.2247C109.966 29.4152 109.966 31.343 108.775 32.5337Z" fill="white"/>
<path d="M121.702 15.2975C121.503 15.0981 121.231 14.9901 120.948 15.0007C120.718 15.0089 115.25 15.2287 108.751 17.526C103.543 19.3649 99.2017 21.9977 95.8482 25.3512C95.0968 26.1027 94.3655 26.8996 93.6658 27.7274C90.35 25.7756 87.693 26.3876 86.0132 27.2865C82.1456 29.3564 79.7517 34.9764 79.7517 38.9962C79.752 39.407 79.9995 39.7774 80.379 39.9345C80.5046 39.9866 80.6366 40.0119 80.7674 40.0119C81.0318 40.0119 81.2915 39.9086 81.4858 39.7144C83.5255 37.6747 86.0413 37.8023 86.8631 37.9103L87.2188 38.266C86.5188 39.9316 85.9549 41.5879 85.5414 43.1988C85.3921 43.7818 85.4424 44.3986 85.6644 44.9629C84.6865 45.4136 83.7431 46.0752 82.9217 46.8967C80.3074 49.5111 79.7765 55.8825 79.7552 56.1524C79.7318 56.4487 79.8393 56.7404 80.0494 56.9505C80.2406 57.1417 80.4993 57.248 80.7674 57.248C80.794 57.248 80.8208 57.247 80.8475 57.2449C81.1174 57.2236 87.489 56.6928 90.1033 54.0784C90.9245 53.2573 91.5861 52.314 92.0367 51.3364C92.6341 51.5713 93.2489 51.6002 93.8018 51.4585C95.412 51.0451 97.0681 50.4814 98.7339 49.7813L99.0896 50.137C99.1975 50.959 99.3251 53.4748 97.2855 55.5142C96.9952 55.8047 96.9082 56.2415 97.0654 56.621C97.2226 57.0005 97.5929 57.2479 98.0037 57.2479C102.024 57.2479 107.643 54.854 109.713 50.9864C110.612 49.3068 111.224 46.6498 109.272 43.3339C110.1 42.6345 110.897 41.9033 111.649 41.1515C115.002 37.7979 117.635 33.4568 119.474 28.2491C121.771 21.7493 121.991 16.2816 121.999 16.0521C122.009 15.7703 121.902 15.497 121.702 15.2975ZM82.0224 36.8117C82.6533 33.7585 84.4858 30.408 86.9721 29.0774C88.6335 28.1883 90.4496 28.2754 92.3805 29.3324C90.7355 31.4959 89.3054 33.8267 88.1133 36.2881C88.0982 36.2787 87.9154 36.0489 87.5758 35.9723C87.4361 35.9407 84.7489 35.3627 82.0224 36.8117ZM88.6671 52.6421C87.2706 54.0385 83.9947 54.7751 81.9241 55.0758C82.225 53.0051 82.9616 49.7293 84.358 48.333C85.14 47.5509 86.0467 46.958 86.9582 46.6241L90.3759 50.0419C90.042 50.9533 89.4492 51.86 88.6671 52.6421ZM93.2973 49.4909C93.0034 49.5661 92.6629 49.4556 92.4098 49.2029C91.0959 47.889 90.5819 47.375 90.4206 47.2139C90.1249 46.9181 89.3996 46.1928 87.7977 44.5908C87.5444 44.337 87.4339 43.9967 87.5089 43.7032C87.8342 42.4364 88.2597 41.1366 88.777 39.8243L97.1757 48.223C95.8632 48.7404 94.5637 49.1658 93.2973 49.4909ZM107.923 50.0279C106.592 52.5141 103.242 54.3467 100.188 54.9775C101.162 53.1456 101.377 50.8136 101.021 49.3996C100.938 49.0711 100.724 48.906 100.712 48.8866C103.173 47.6945 105.504 46.2644 107.668 44.6194C108.725 46.5505 108.812 48.3668 107.923 50.0279ZM110.212 39.7152C109.297 40.6303 108.312 41.5144 107.283 42.3428C104.811 44.3334 102.09 46.0196 99.1871 47.3618L89.6382 37.8131C90.9804 34.9099 92.6666 32.1888 94.657 29.7169C95.4861 28.6878 96.3701 27.7022 97.2849 26.7875C100.294 23.7786 104.177 21.384 108.83 19.6603L117.34 28.1704C115.616 32.8231 113.222 36.7062 110.212 39.7152ZM118.07 26.0284L110.972 18.9296C114.839 17.7283 118.204 17.2785 119.883 17.1168C119.722 18.7965 119.272 22.1612 118.07 26.0284Z" fill="white"/>
<path d="M94.4128 56.9502C94.016 56.5536 93.3729 56.5538 92.9764 56.9504L90.1042 59.8236C89.7077 60.2203 89.7078 60.8634 90.1044 61.2599C90.5012 61.6564 91.1443 61.6564 91.5408 61.2597L94.413 58.3865C94.8095 57.9898 94.8094 57.3467 94.4128 56.9502Z" fill="white"/>
<path d="M80.05 42.5876C79.6535 42.1909 79.0105 42.1909 78.6137 42.5874L75.7405 45.4596C75.3438 45.8561 75.3437 46.4992 75.7402 46.8959C76.1366 47.2924 76.7796 47.2928 77.1765 46.8961L80.0497 44.0239C80.4464 43.6274 80.4465 42.9843 80.05 42.5876Z" fill="white"/>
<path d="M87.2313 58.3873C86.8349 57.9907 86.1917 57.9907 85.795 58.3872L78.9152 65.266C78.5185 65.6626 78.5185 66.3057 78.9151 66.7023C79.3115 67.0989 79.9547 67.0991 80.3514 66.7024L87.2312 59.8236C87.6279 59.427 87.6279 58.7839 87.2313 58.3873Z" fill="white"/>
<path d="M79.1063 58.3873C78.7098 57.9907 78.0666 57.9907 77.67 58.3872L70.7902 65.266C70.3935 65.6626 70.3935 66.3057 70.7901 66.7023C71.1865 67.0989 71.8297 67.0991 72.2264 66.7024L79.1062 59.8236C79.5029 59.427 79.5029 58.7839 79.1063 58.3873Z" fill="white"/>
<path d="M78.6128 49.7686C78.2163 49.3721 77.5731 49.3721 77.1765 49.7687L70.2977 56.6485C69.9011 57.0452 69.9011 57.6882 70.2978 58.0849C70.6944 58.4815 71.3375 58.4815 71.7341 58.0848L78.6129 51.2049C79.0095 50.8082 79.0095 50.1653 78.6128 49.7686Z" fill="white"/>
<path d="M101.594 35.4058C101.198 35.0092 100.555 35.0092 100.158 35.4058L98.7218 36.8419C98.3252 37.2385 98.3252 37.8816 98.7218 38.2783C99.1185 38.6749 99.7615 38.6749 100.158 38.2783L101.594 36.8422C101.991 36.4456 101.991 35.8025 101.594 35.4058Z" fill="white"/>
</g>
<defs>
<clipPath id="clip0">
<rect width="52" height="52" fill="white" transform="translate(70 15)"/>
</clipPath>
</defs>
</svg>
