<svg width="193" height="121" viewBox="0 0 193 121" fill="none" xmlns="http://www.w3.org/2000/svg">
<path d="M73.0385 0L50.2888 40.3108L73.0385 79.8235H119.336L141.288 40.3108L119.336 0H73.0385Z" fill="#00C896"/>
<path d="M96.2334 22.5813C87.6954 22.5813 80.72 29.5568 80.72 38.0947C80.72 42.559 82.6731 46.8559 85.9655 49.7577C88.4209 52.213 88.1977 57.4586 88.1418 57.5144C88.1418 57.7934 88.1977 58.0166 88.4209 58.2398C88.5883 58.4072 88.8673 58.5188 89.0905 58.5188H103.32C103.599 58.5188 103.823 58.4072 103.99 58.2398C104.157 58.0724 104.269 57.7934 104.269 57.5144C104.269 57.4586 103.99 52.213 106.445 49.7577C106.501 49.7019 106.557 49.6461 106.613 49.5902C109.849 46.6327 111.747 42.4474 111.747 38.0947C111.747 29.5568 104.771 22.5813 96.2334 22.5813ZM105.162 48.3068C105.106 48.3626 104.995 48.4742 104.995 48.53C102.818 50.8737 102.428 54.7242 102.372 56.5657H90.0392C89.9834 54.7242 89.5927 50.7063 87.249 48.3068C84.2914 45.7398 82.5615 42.001 82.5615 38.0389C82.5615 30.5054 88.6441 24.4228 96.1776 24.4228C103.711 24.4228 109.794 30.5054 109.794 38.0389C109.794 42.001 108.12 45.7398 105.162 48.3068Z" fill="white"/>
<path d="M96.1772 26.5432C95.6749 26.5432 95.2285 26.9896 95.2285 27.4919C95.2285 27.9941 95.6749 28.4405 96.1772 28.4405C101.813 28.4405 106.333 33.0164 106.333 38.5968C106.333 39.099 106.78 39.5455 107.282 39.5455C107.784 39.5455 108.231 39.099 108.231 38.5968C108.287 31.9562 102.874 26.5432 96.1772 26.5432Z" fill="white"/>
<path d="M102.372 59.5789H89.9832C88.6997 59.5789 87.6394 60.6391 87.6394 61.9226C87.6394 63.2061 88.6997 64.2664 89.9832 64.2664H102.316C103.655 64.2106 104.715 63.2061 104.715 61.9226C104.715 60.6391 103.655 59.5789 102.372 59.5789ZM102.372 62.3132H89.9832C89.7599 62.3132 89.5367 62.1458 89.5367 61.8668C89.5367 61.5878 89.7041 61.4204 89.9832 61.4204H102.316C102.539 61.4204 102.762 61.5878 102.762 61.8668C102.762 62.1458 102.595 62.3132 102.372 62.3132Z" fill="white"/>
<path d="M100.53 65.2151H91.8247C90.5412 65.2151 89.481 66.2754 89.481 67.5588C89.481 68.8423 90.5412 69.9026 91.8247 69.9026H100.53C101.814 69.9026 102.874 68.8423 102.874 67.5588C102.874 66.2196 101.814 65.2151 100.53 65.2151ZM100.53 67.9495H91.8247C91.6015 67.9495 91.3783 67.7821 91.3783 67.503C91.3783 67.224 91.5457 67.0566 91.8247 67.0566H100.53C100.753 67.0566 100.976 67.224 100.976 67.503C100.976 67.7821 100.753 67.9495 100.53 67.9495Z" fill="white"/>
<path d="M96.1772 17.9494C96.7352 17.9494 97.1258 17.503 97.1258 17.0007V10.5275C97.1258 10.0253 96.6794 9.57886 96.1772 9.57886C95.6749 9.57886 95.2285 10.0253 95.2285 10.5275V17.0007C95.2285 17.503 95.6749 17.9494 96.1772 17.9494Z" fill="white"/>
<path d="M111.97 14.3783C111.523 14.0434 110.965 14.2108 110.686 14.6015L107.115 19.9586C106.78 20.405 106.892 21.0189 107.338 21.2979C107.505 21.4095 107.673 21.4653 107.84 21.4653C108.175 21.4653 108.454 21.2979 108.622 21.0189L112.193 15.6617C112.528 15.2711 112.416 14.6573 111.97 14.3783Z" fill="white"/>
<path d="M84.8494 21.2419C85.0168 21.2419 85.1842 21.1861 85.3516 21.0745C85.798 20.7955 85.9097 20.1816 85.6306 19.7352L82.1708 14.3222C81.8918 13.8758 81.278 13.7642 80.8315 14.0432C80.3851 14.3222 80.2735 14.9361 80.5525 15.3825L84.0123 20.7955C84.2355 21.1303 84.5146 21.2419 84.8494 21.2419Z" fill="white"/>
<path d="M78.097 27.1571L72.4609 24.0879C72.0144 23.8647 71.4006 24.0321 71.1774 24.4786C70.8984 24.925 71.0658 25.5388 71.568 25.7621L77.2042 28.8313C77.3716 28.8871 77.4832 28.9429 77.6506 28.9429C77.9854 28.9429 78.3202 28.7754 78.4877 28.4406C78.7109 27.9942 78.5435 27.3804 78.097 27.1571Z" fill="white"/>
<path d="M121.233 24.4786C121.01 24.0321 120.396 23.8647 119.95 24.0879L114.258 27.1571C113.811 27.3804 113.644 27.9942 113.867 28.4406C114.035 28.7754 114.369 28.9429 114.704 28.9429C114.872 28.9429 115.039 28.8871 115.151 28.8313L120.843 25.7621C121.289 25.5388 121.457 24.925 121.233 24.4786Z" fill="white"/>
<path d="M17.1879 117.332C15.7692 117.332 14.4719 117.052 13.2959 116.492C12.1386 115.913 11.1399 115.148 10.2999 114.196C9.45989 113.244 8.80656 112.17 8.33989 110.976C7.89189 109.762 7.66789 108.521 7.66789 107.252C7.66789 105.926 7.91056 104.666 8.39589 103.472C8.88122 102.258 9.55322 101.185 10.4119 100.252C11.2706 99.2996 12.2786 98.553 13.4359 98.0116C14.6119 97.4516 15.8812 97.1716 17.2439 97.1716C18.6626 97.1716 19.9506 97.461 21.1079 98.0396C22.2839 98.6183 23.2826 99.393 24.1039 100.364C24.9439 101.334 25.5879 102.417 26.0359 103.612C26.5026 104.806 26.7359 106.029 26.7359 107.28C26.7359 108.586 26.5026 109.837 26.0359 111.032C25.5692 112.226 24.9159 113.29 24.0759 114.224L26.6799 117.192H23.6559L22.3679 115.736C21.6399 116.24 20.8372 116.632 19.9599 116.912C19.0826 117.192 18.1586 117.332 17.1879 117.332ZM17.2159 114.504C17.8319 114.504 18.4106 114.42 18.9519 114.252C19.4932 114.084 19.9972 113.85 20.4639 113.552L17.6079 110.276H20.6319L22.0879 111.928C22.5546 111.274 22.9092 110.537 23.1519 109.716C23.3946 108.894 23.5159 108.073 23.5159 107.252C23.5159 106.001 23.2546 104.825 22.7319 103.724C22.2279 102.604 21.4999 101.708 20.5479 101.036C19.5959 100.345 18.4852 99.9996 17.2159 99.9996C16.2079 99.9996 15.3119 100.205 14.5279 100.616C13.7439 101.026 13.0812 101.586 12.5399 102.296C11.9986 102.986 11.5786 103.761 11.2799 104.62C10.9999 105.478 10.8599 106.356 10.8599 107.252C10.8599 108.502 11.1212 109.688 11.6439 110.808C12.1666 111.909 12.8946 112.805 13.8279 113.496C14.7799 114.168 15.9092 114.504 17.2159 114.504ZM28.8359 111.508V102.548H31.9159V110.892C31.9159 113.524 32.8492 114.84 34.7159 114.84C35.5932 114.84 36.4239 114.569 37.2079 114.028C37.9919 113.468 38.5986 112.684 39.0279 111.676V102.548H42.1079V113.72C42.1079 114.074 42.1732 114.326 42.3039 114.476C42.4346 114.625 42.6492 114.709 42.9479 114.728V117.192C42.6306 117.248 42.3692 117.285 42.1639 117.304C41.9586 117.322 41.7626 117.332 41.5759 117.332C41.0159 117.332 40.5492 117.182 40.1759 116.884C39.8026 116.585 39.5879 116.184 39.5319 115.68L39.4759 114.224C38.8226 115.288 37.9732 116.1 36.9279 116.66C35.8826 117.201 34.7346 117.472 33.4839 117.472C31.9532 117.472 30.7959 116.968 30.0119 115.96C29.2279 114.952 28.8359 113.468 28.8359 111.508ZM45.4784 100.14V96.7516H48.5584V100.14H45.4784ZM45.4784 117.192V102.548H48.5584V117.192H45.4784ZM58.3356 117.472C56.8236 117.472 55.4983 117.126 54.3596 116.436C53.221 115.726 52.3343 114.793 51.6996 113.636C51.065 112.478 50.7476 111.218 50.7476 109.856C50.7476 108.493 51.0556 107.242 51.6716 106.104C52.3063 104.946 53.1836 104.022 54.3036 103.332C55.4423 102.641 56.7863 102.296 58.3356 102.296C59.8476 102.296 61.145 102.632 62.2276 103.304C63.329 103.957 64.1503 104.834 64.6916 105.936L61.6956 106.888C61.3596 106.272 60.8836 105.796 60.2676 105.46C59.6703 105.105 59.0076 104.928 58.2796 104.928C57.4583 104.928 56.7116 105.142 56.0396 105.572C55.3863 105.982 54.8636 106.561 54.4716 107.308C54.0983 108.054 53.9116 108.904 53.9116 109.856C53.9116 110.808 54.1076 111.657 54.4996 112.404C54.9103 113.15 55.4423 113.748 56.0956 114.196C56.7676 114.625 57.505 114.84 58.3076 114.84C59.0543 114.84 59.7636 114.644 60.4356 114.252C61.1076 113.86 61.5556 113.384 61.7796 112.824L64.8036 113.72C64.3183 114.821 63.5063 115.726 62.3676 116.436C61.229 117.126 59.885 117.472 58.3356 117.472ZM76.9723 117.192L72.2683 110.444L69.8603 112.74V117.192H66.7803V96.7516H69.8603V109.632L76.6363 102.576H79.9403L74.2563 108.708L80.2483 117.192H76.9723ZM88.3101 117.192V97.3116H91.4461V114.42H102.114V117.192H88.3101ZM110.209 117.472C108.697 117.472 107.372 117.126 106.233 116.436C105.094 115.745 104.208 114.83 103.573 113.692C102.938 112.534 102.621 111.274 102.621 109.912C102.621 108.53 102.938 107.261 103.573 106.104C104.208 104.946 105.094 104.022 106.233 103.332C107.372 102.641 108.706 102.296 110.237 102.296C111.768 102.296 113.093 102.65 114.213 103.36C115.333 104.05 116.192 104.965 116.789 106.104C117.405 107.242 117.713 108.465 117.713 109.772C117.713 110.238 117.685 110.612 117.629 110.892H105.897C105.953 111.75 106.186 112.506 106.597 113.16C107.026 113.794 107.558 114.298 108.193 114.672C108.846 115.026 109.556 115.204 110.321 115.204C111.142 115.204 111.917 114.998 112.645 114.588C113.373 114.177 113.877 113.636 114.157 112.964L116.789 113.72C116.285 114.821 115.445 115.726 114.269 116.436C113.112 117.126 111.758 117.472 110.209 117.472ZM105.813 108.848H114.661C114.586 108.008 114.344 107.27 113.933 106.636C113.522 105.982 112.99 105.478 112.337 105.124C111.702 104.75 110.993 104.564 110.209 104.564C109.444 104.564 108.734 104.75 108.081 105.124C107.446 105.478 106.924 105.982 106.513 106.636C106.102 107.27 105.869 108.008 105.813 108.848ZM118.601 112.908C118.601 111.974 118.863 111.162 119.385 110.472C119.908 109.762 120.636 109.221 121.569 108.848C122.521 108.456 123.613 108.26 124.845 108.26C125.499 108.26 126.161 108.316 126.833 108.428C127.524 108.521 128.131 108.661 128.653 108.848V107.924C128.653 106.897 128.345 106.094 127.729 105.516C127.113 104.937 126.227 104.648 125.069 104.648C124.267 104.648 123.492 104.788 122.745 105.068C121.999 105.348 121.224 105.758 120.421 106.3L119.385 104.228C120.356 103.593 121.327 103.117 122.297 102.8C123.287 102.464 124.323 102.296 125.405 102.296C127.365 102.296 128.905 102.818 130.025 103.864C131.164 104.89 131.733 106.356 131.733 108.26V113.72C131.733 114.074 131.789 114.326 131.901 114.476C132.032 114.625 132.247 114.709 132.545 114.728V117.192C132.265 117.248 132.013 117.285 131.789 117.304C131.565 117.322 131.379 117.332 131.229 117.332C130.557 117.332 130.053 117.173 129.717 116.856C129.4 116.52 129.213 116.146 129.157 115.736L129.073 114.896C128.439 115.717 127.627 116.352 126.637 116.8C125.648 117.248 124.649 117.472 123.641 117.472C122.671 117.472 121.803 117.276 121.037 116.884C120.272 116.473 119.675 115.922 119.245 115.232C118.816 114.541 118.601 113.766 118.601 112.908ZM127.925 113.804C128.411 113.318 128.653 112.861 128.653 112.432V110.752C127.552 110.341 126.432 110.136 125.293 110.136C124.173 110.136 123.259 110.369 122.549 110.836C121.859 111.284 121.513 111.89 121.513 112.656C121.513 113.29 121.765 113.878 122.269 114.42C122.792 114.942 123.539 115.204 124.509 115.204C125.163 115.204 125.797 115.073 126.413 114.812C127.029 114.55 127.533 114.214 127.925 113.804ZM143.142 105.208C141.947 105.245 140.883 105.525 139.95 106.048C139.035 106.552 138.382 107.28 137.99 108.232V117.192H134.91V102.548H137.766V105.824C138.27 104.816 138.933 104.013 139.754 103.416C140.575 102.8 141.443 102.464 142.358 102.408C142.526 102.408 142.675 102.408 142.806 102.408C142.937 102.408 143.049 102.417 143.142 102.436V105.208ZM157.955 117.192H154.875V108.988C154.875 107.606 154.651 106.608 154.203 105.992C153.773 105.357 153.129 105.04 152.271 105.04C151.673 105.04 151.076 105.189 150.479 105.488C149.9 105.786 149.377 106.197 148.911 106.72C148.444 107.242 148.108 107.83 147.903 108.484V117.192H144.823V102.548H147.623V105.488C148.183 104.517 148.995 103.742 150.059 103.164C151.123 102.585 152.299 102.296 153.587 102.296C154.744 102.296 155.64 102.576 156.275 103.136C156.909 103.677 157.348 104.396 157.591 105.292C157.833 106.188 157.955 107.177 157.955 108.26V117.192ZM167.606 117.472C166.094 117.472 164.768 117.126 163.63 116.436C162.491 115.745 161.604 114.83 160.97 113.692C160.335 112.534 160.018 111.274 160.018 109.912C160.018 108.53 160.335 107.261 160.97 106.104C161.604 104.946 162.491 104.022 163.63 103.332C164.768 102.641 166.103 102.296 167.634 102.296C169.164 102.296 170.49 102.65 171.61 103.36C172.73 104.05 173.588 104.965 174.186 106.104C174.802 107.242 175.11 108.465 175.11 109.772C175.11 110.238 175.082 110.612 175.026 110.892H163.294C163.35 111.75 163.583 112.506 163.994 113.16C164.423 113.794 164.955 114.298 165.59 114.672C166.243 115.026 166.952 115.204 167.718 115.204C168.539 115.204 169.314 114.998 170.042 114.588C170.77 114.177 171.274 113.636 171.554 112.964L174.186 113.72C173.682 114.821 172.842 115.726 171.666 116.436C170.508 117.126 169.155 117.472 167.606 117.472ZM163.21 108.848H172.058C171.983 108.008 171.74 107.27 171.33 106.636C170.919 105.982 170.387 105.478 169.734 105.124C169.099 104.75 168.39 104.564 167.606 104.564C166.84 104.564 166.131 104.75 165.478 105.124C164.843 105.478 164.32 105.982 163.91 106.636C163.499 107.27 163.266 108.008 163.21 108.848ZM185.294 105.208C184.099 105.245 183.035 105.525 182.102 106.048C181.187 106.552 180.534 107.28 180.142 108.232V117.192H177.062V102.548H179.918V105.824C180.422 104.816 181.085 104.013 181.906 103.416C182.727 102.8 183.595 102.464 184.51 102.408C184.678 102.408 184.827 102.408 184.958 102.408C185.089 102.408 185.201 102.417 185.294 102.436V105.208Z" fill="#C8FCEA"/>
</svg>
