<?xml version="1.0" encoding="UTF-8"?>
<svg xmlns="http://www.w3.org/2000/svg" xmlns:xlink="http://www.w3.org/1999/xlink" width="300pt" height="300pt" viewBox="0 0 300 300" version="1.1">
<g id="surface9880524">
<path style=" stroke:none;fill-rule:nonzero;fill:rgb(94.509804%,73.725492%,9.803922%);fill-opacity:1;" d="M 237 42 C 237 43.65625 235.65625 45 234 45 C 232.34375 45 231 43.65625 231 42 C 231 40.34375 232.34375 39 234 39 C 235.65625 39 237 40.34375 237 42 Z M 237 42 "/>
<path style=" stroke:none;fill-rule:nonzero;fill:rgb(97.647059%,85.882354%,82.352942%);fill-opacity:1;" d="M 264 150 C 264 212.960938 212.960938 264 150 264 C 87.039062 264 36 212.960938 36 150 C 36 87.039062 87.039062 36 150 36 C 212.960938 36 264 87.039062 264 150 Z M 264 150 "/>
<path style=" stroke:none;fill-rule:nonzero;fill:rgb(94.509804%,73.725492%,9.803922%);fill-opacity:1;" d="M 264 48 C 264 54.628906 258.628906 60 252 60 C 245.371094 60 240 54.628906 240 48 C 240 41.371094 245.371094 36 252 36 C 258.628906 36 264 41.371094 264 48 Z M 264 48 "/>
<path style=" stroke:none;fill-rule:nonzero;fill:rgb(93.333334%,24.313726%,32.941177%);fill-opacity:1;" d="M 48 78 C 48 81.3125 45.3125 84 42 84 C 38.6875 84 36 81.3125 36 78 C 36 74.6875 38.6875 72 42 72 C 45.3125 72 48 74.6875 48 78 Z M 48 78 "/>
<path style=" stroke:none;fill-rule:nonzero;fill:rgb(98.431373%,80.392158%,34.901962%);fill-opacity:1;" d="M 240 231 C 240 234.3125 237.3125 237 234 237 C 230.6875 237 228 234.3125 228 231 C 228 227.6875 230.6875 225 234 225 C 237.3125 225 240 227.6875 240 231 Z M 240 231 "/>
<path style=" stroke:none;fill-rule:nonzero;fill:rgb(98.431373%,80.392158%,34.901962%);fill-opacity:1;" d="M 63 234 C 63 240.628906 57.628906 246 51 246 C 44.371094 246 39 240.628906 39 234 C 39 227.371094 44.371094 222 51 222 C 57.628906 222 63 227.371094 63 234 Z M 63 234 "/>
<path style=" stroke:none;fill-rule:nonzero;fill:rgb(93.333334%,24.313726%,32.941177%);fill-opacity:1;" d="M 78 249 C 78 252.3125 75.3125 255 72 255 C 68.6875 255 66 252.3125 66 249 C 66 245.6875 68.6875 243 72 243 C 75.3125 243 78 245.6875 78 249 Z M 78 249 "/>
<path style=" stroke:none;fill-rule:nonzero;fill:rgb(100%,100%,100%);fill-opacity:1;" d="M 207 235.5 C 207 239.640625 203.640625 243 199.5 243 C 195.359375 243 192 239.640625 192 235.5 C 192 231.359375 195.359375 228 199.5 228 C 203.640625 228 207 231.359375 207 235.5 Z M 207 235.5 "/>
<path style=" stroke:none;fill-rule:nonzero;fill:rgb(100%,100%,100%);fill-opacity:1;" d="M 51 144 C 51 145.65625 49.65625 147 48 147 C 46.34375 147 45 145.65625 45 144 C 45 142.34375 46.34375 141 48 141 C 49.65625 141 51 142.34375 51 144 Z M 51 144 "/>
<path style=" stroke:none;fill-rule:nonzero;fill:rgb(94.509804%,73.725492%,9.803922%);fill-opacity:1;" d="M 261 93 C 261 94.65625 259.65625 96 258 96 C 256.34375 96 255 94.65625 255 93 C 255 91.34375 256.34375 90 258 90 C 259.65625 90 261 91.34375 261 93 Z M 261 93 "/>
<path style=" stroke:none;fill-rule:nonzero;fill:rgb(100%,100%,100%);fill-opacity:1;" d="M 246 198 C 246 201.3125 243.3125 204 240 204 C 236.6875 204 234 201.3125 234 198 C 234 194.6875 236.6875 192 240 192 C 243.3125 192 246 194.6875 246 198 Z M 246 198 "/>
<path style=" stroke:none;fill-rule:nonzero;fill:rgb(46.666667%,79.607844%,82.352942%);fill-opacity:1;" d="M 150 189 C 102 189 66 172.199219 66 150 C 66 127.800781 102 111 150 111 C 198 111 234 127.800781 234 150 C 234 172.199219 198 189 150 189 Z M 150 122.699219 C 107.101562 122.699219 77.101562 137.101562 77.101562 150 C 77.101562 162.898438 107.101562 177.300781 150 177.300781 C 192.898438 177.300781 222.898438 162.898438 222.898438 150 C 222.898438 137.101562 192.898438 122.699219 150 122.699219 Z M 150 122.699219 "/>
<path style=" stroke:none;fill-rule:nonzero;fill:rgb(27.843139%,16.862746%,16.078432%);fill-opacity:1;" d="M 150 191.101562 C 100.800781 191.101562 63.898438 173.398438 63.898438 150 C 63.898438 126.601562 100.800781 108.898438 150 108.898438 C 199.199219 108.898438 236.101562 126.601562 236.101562 150 C 236.101562 173.398438 199.199219 191.101562 150 191.101562 Z M 150 113.101562 C 103.199219 113.101562 68.101562 129 68.101562 150 C 68.101562 171 103.199219 186.898438 150 186.898438 C 196.800781 186.898438 231.898438 171 231.898438 150 C 231.898438 129 196.800781 113.101562 150 113.101562 Z M 150 179.398438 C 105.300781 179.398438 75 164.101562 75 150 C 75 135.898438 105 120.601562 150 120.601562 C 195 120.601562 225 135.898438 225 150 C 225 164.101562 194.699219 179.398438 150 179.398438 Z M 150 124.800781 C 106.199219 124.800781 79.199219 139.5 79.199219 150 C 79.199219 160.5 106.199219 175.199219 150 175.199219 C 193.800781 175.199219 220.800781 160.5 220.800781 150 C 220.800781 139.5 193.800781 124.800781 150 124.800781 Z M 150 124.800781 "/>
<path style=" stroke:none;fill-rule:nonzero;fill:rgb(46.666667%,79.607844%,82.352942%);fill-opacity:1;" d="M 118.5 225.601562 C 114.601562 225.601562 111.300781 224.699219 108.300781 222.898438 C 90 212.101562 93.898438 172.800781 117.601562 131.101562 C 134.101562 102 156.300781 80.101562 174.300781 75.300781 C 180.898438 73.5 186.898438 74.101562 191.699219 76.800781 C 210 87.601562 206.101562 126.898438 182.398438 168.601562 C 165.898438 197.699219 143.699219 219.601562 125.699219 224.398438 C 123.300781 225.300781 120.898438 225.601562 118.5 225.601562 Z M 181.5 85.5 C 180.300781 85.5 178.800781 85.800781 177 86.101562 C 162.300781 90 142.199219 110.398438 127.199219 136.5 C 106.5 172.800781 103.199219 206.699219 113.699219 213 C 115.800781 214.199219 118.800781 214.5 122.699219 213.601562 C 137.398438 209.699219 157.5 189.300781 172.5 163.199219 C 193.199219 126.898438 196.5 93 186 86.699219 C 184.800781 86.101562 183.300781 85.5 181.5 85.5 Z M 181.5 85.5 "/>
<path style=" stroke:none;fill-rule:nonzero;fill:rgb(27.843139%,16.862746%,16.078432%);fill-opacity:1;" d="M 118.5 227.699219 C 114.300781 227.699219 110.398438 226.800781 107.101562 224.699219 C 87.601562 213.300781 91.199219 172.5 115.5 129.898438 C 132.300781 100.199219 155.101562 78 173.398438 73.199219 C 180.601562 71.398438 187.199219 72 192.601562 75 C 212.101562 86.398438 208.5 127.199219 184.199219 169.800781 C 167.398438 199.5 144.601562 221.699219 126.300781 226.5 C 123.601562 227.398438 121.199219 227.699219 118.5 227.699219 Z M 181.5 76.5 C 179.398438 76.5 177 76.800781 174.898438 77.398438 C 157.5 81.898438 135.898438 103.5 119.699219 132 C 96.898438 171.898438 92.699219 210.898438 109.800781 221.101562 C 114 223.5 119.699219 224.101562 125.699219 222.601562 C 143.101562 218.101562 164.699219 196.5 180.898438 168 C 203.699219 128.101562 208.199219 89.101562 190.800781 79.199219 C 187.800781 77.398438 184.800781 76.5 181.5 76.5 Z M 118.5 216.601562 C 116.398438 216.601562 114.601562 216 112.800781 215.101562 C 99.601562 207.601562 105.601562 170.398438 125.398438 135.601562 C 140.699219 108.898438 161.101562 88.199219 176.398438 84.300781 C 180.601562 83.101562 184.199219 83.398438 186.898438 84.898438 C 200.101562 92.398438 194.101562 129.601562 174.300781 164.398438 C 159 191.101562 138.601562 211.800781 123.300781 215.699219 C 121.800781 216.300781 120 216.601562 118.5 216.601562 Z M 181.5 87.601562 C 180.300781 87.601562 179.101562 87.898438 177.601562 88.199219 C 163.199219 92.101562 143.699219 111.898438 129 137.699219 C 107.699219 175.199219 106.199219 206.398438 114.898438 211.5 C 116.699219 212.398438 119.101562 212.699219 122.101562 211.800781 C 136.5 207.898438 156 188.101562 170.699219 162.300781 C 192 124.800781 193.5 93.601562 184.800781 88.5 C 183.898438 87.898438 182.699219 87.601562 181.5 87.601562 Z M 181.5 87.601562 "/>
<path style=" stroke:none;fill-rule:nonzero;fill:rgb(46.666667%,79.607844%,82.352942%);fill-opacity:1;" d="M 181.5 225.601562 C 179.101562 225.601562 176.699219 225.300781 174.300781 224.699219 C 156.601562 219.898438 134.398438 198 117.601562 168.898438 C 93.898438 127.199219 90 87.898438 108.300781 77.101562 C 113.101562 74.398438 119.101562 73.800781 125.699219 75.601562 C 143.398438 80.398438 165.601562 102.300781 182.398438 131.398438 C 206.101562 173.101562 210 212.398438 191.699219 223.199219 C 188.699219 224.699219 185.101562 225.601562 181.5 225.601562 Z M 118.5 85.5 C 116.699219 85.5 115.199219 85.800781 114 86.699219 C 103.199219 93 106.800781 127.199219 127.5 163.199219 C 142.5 189.300781 162.300781 209.699219 177.300781 213.601562 C 180.898438 214.5 183.898438 214.5 186.300781 213 C 197.101562 206.699219 193.5 172.5 172.800781 136.5 C 157.800781 110.398438 138 90 123 86.101562 C 121.199219 85.800781 120 85.5 118.5 85.5 Z M 118.5 85.5 "/>
<path style=" stroke:none;fill-rule:nonzero;fill:rgb(27.843139%,16.862746%,16.078432%);fill-opacity:1;" d="M 181.5 227.699219 C 179.101562 227.699219 176.398438 227.398438 173.699219 226.5 C 155.398438 221.699219 132.601562 199.199219 115.800781 169.800781 C 91.5 127.199219 87.898438 86.398438 107.398438 75 C 112.800781 72 119.398438 71.101562 126.601562 73.199219 C 144.898438 78 167.699219 100.5 184.5 129.898438 C 208.800781 172.5 212.398438 213.300781 192.898438 224.699219 C 189.300781 226.800781 185.699219 227.699219 181.5 227.699219 Z M 118.5 76.5 C 115.199219 76.5 111.898438 77.398438 109.199219 78.898438 C 92.101562 88.800781 96.601562 128.101562 119.101562 167.699219 C 135.300781 196.199219 157.199219 217.800781 174.300781 222.300781 C 180.300781 223.800781 185.699219 223.5 190.199219 220.800781 C 207.300781 210.898438 202.800781 171.601562 180.300781 131.699219 C 164.101562 103.199219 142.199219 81.601562 125.101562 77.101562 C 123 76.800781 120.601562 76.5 118.5 76.5 Z M 181.5 216.601562 C 180 216.601562 178.5 216.300781 176.699219 216 C 161.398438 211.800781 141 191.101562 125.699219 164.699219 C 105.898438 129.898438 99.898438 93 113.101562 85.199219 C 115.800781 83.699219 119.398438 83.398438 123.601562 84.601562 C 138.898438 88.800781 159.300781 109.5 174.601562 135.898438 C 194.398438 170.699219 200.398438 207.601562 187.199219 215.398438 C 185.398438 216 183.601562 216.601562 181.5 216.601562 Z M 118.5 87.601562 C 117 87.601562 115.800781 87.898438 114.898438 88.5 C 106.5 93.601562 107.699219 124.800781 129 162.300781 C 143.699219 188.101562 163.199219 207.898438 177.601562 211.800781 C 180.601562 212.699219 183.300781 212.398438 184.800781 211.5 C 193.199219 206.398438 192 175.199219 170.699219 137.699219 C 156 111.898438 136.800781 92.101562 122.398438 88.199219 C 120.898438 87.898438 119.699219 87.601562 118.5 87.601562 Z M 118.5 87.601562 "/>
<path style=" stroke:none;fill-rule:nonzero;fill:rgb(46.666667%,79.607844%,82.352942%);fill-opacity:1;" d="M 166.5 150 C 166.5 159.113281 159.113281 166.5 150 166.5 C 140.886719 166.5 133.5 159.113281 133.5 150 C 133.5 140.886719 140.886719 133.5 150 133.5 C 159.113281 133.5 166.5 140.886719 166.5 150 Z M 166.5 150 "/>
<path style=" stroke:none;fill-rule:nonzero;fill:rgb(27.843139%,16.862746%,16.078432%);fill-opacity:1;" d="M 150 168 C 140.101562 168 132 159.898438 132 150 C 132 140.101562 140.101562 132 150 132 C 159.898438 132 168 140.101562 168 150 C 168 159.898438 159.898438 168 150 168 Z M 150 135 C 141.601562 135 135 141.601562 135 150 C 135 158.398438 141.601562 165 150 165 C 158.398438 165 165 158.398438 165 150 C 165 141.601562 158.398438 135 150 135 Z M 150 135 "/>
<path style=" stroke:none;fill-rule:nonzero;fill:rgb(27.843139%,16.862746%,16.078432%);fill-opacity:1;" d="M 150 161.398438 C 149.699219 161.398438 149.101562 161.101562 149.101562 160.5 C 149.101562 159.898438 149.398438 159.601562 150 159.601562 C 151.199219 159.601562 152.101562 159.300781 153.300781 159 C 154.800781 158.398438 156 157.5 157.199219 156.601562 C 157.5 156.300781 158.101562 156.300781 158.398438 156.601562 C 158.699219 156.898438 158.699219 157.5 158.398438 157.800781 C 157.199219 159 155.699219 160.199219 153.898438 160.800781 C 152.699219 161.101562 151.199219 161.398438 150 161.398438 Z M 150 161.398438 "/>
<path style=" stroke:none;fill-rule:nonzero;fill:rgb(27.843139%,16.862746%,16.078432%);fill-opacity:1;" d="M 159.300781 155.398438 L 159 155.398438 C 158.699219 155.101562 158.398438 154.800781 158.699219 154.5 C 159.300781 153.300781 159.601562 151.800781 159.601562 150.300781 C 159.601562 146.398438 157.5 143.101562 154.199219 141.601562 C 153.898438 141.300781 153.601562 141 153.898438 140.699219 C 154.199219 140.398438 154.5 140.101562 154.800781 140.398438 C 158.699219 142.199219 161.101562 146.101562 161.101562 150.601562 C 161.101562 152.398438 160.800781 153.898438 159.898438 155.699219 C 159.898438 155.101562 159.601562 155.398438 159.300781 155.398438 Z M 159.300781 155.398438 "/>
<path style=" stroke:none;fill-rule:nonzero;fill:rgb(27.843139%,16.862746%,16.078432%);fill-opacity:1;" d="M 144.300781 141.898438 C 144 141.898438 143.699219 141.898438 143.699219 141.601562 C 143.398438 141.300781 143.699219 140.699219 144 140.699219 C 145.800781 139.5 147.898438 138.898438 150 138.898438 C 150.300781 138.898438 150.898438 139.199219 150.898438 139.800781 C 150.898438 140.398438 150.601562 140.699219 150 140.699219 C 148.199219 140.699219 146.398438 141.300781 144.601562 142.199219 C 144.601562 141.898438 144.601562 141.898438 144.300781 141.898438 Z M 144.300781 141.898438 "/>
<path style=" stroke:none;fill-rule:nonzero;fill:rgb(27.843139%,16.862746%,16.078432%);fill-opacity:1;" d="M 160.5 110.398438 C 160.199219 110.398438 160.199219 110.398438 159.898438 110.101562 C 148.800781 96.300781 138.300781 87.300781 128.699219 83.398438 C 128.398438 83.101562 128.101562 82.800781 128.398438 82.5 C 128.699219 82.199219 129 81.898438 129.300781 82.199219 C 139.199219 86.398438 149.699219 95.699219 161.101562 109.5 C 161.398438 109.800781 161.398438 110.398438 161.101562 110.699219 C 160.800781 110.101562 160.800781 110.398438 160.5 110.398438 Z M 160.5 110.398438 "/>
<path style=" stroke:none;fill-rule:nonzero;fill:rgb(27.843139%,16.862746%,16.078432%);fill-opacity:1;" d="M 109.5 83.398438 C 109.199219 83.398438 109.199219 83.398438 108.898438 83.101562 C 108.601562 82.800781 108.601562 82.199219 108.898438 81.898438 C 109.800781 81.300781 114.601562 78 123.300781 79.800781 C 123.601562 79.800781 123.898438 80.398438 123.898438 80.699219 C 123.898438 81 123.300781 81.300781 123 81.300781 C 114.898438 79.5 110.699219 82.5 110.101562 83.101562 C 109.800781 83.101562 109.800781 83.398438 109.5 83.398438 Z M 109.5 83.398438 "/>
<path style=" stroke:none;fill-rule:nonzero;fill:rgb(27.843139%,16.862746%,16.078432%);fill-opacity:1;" d="M 219.898438 166.5 C 219.601562 166.5 219.601562 166.5 219.300781 166.199219 C 219 165.898438 219 165.300781 219.300781 165 C 226.199219 159.300781 228.898438 152.699219 227.398438 145.199219 C 227.398438 144.898438 227.699219 144.300781 228 144.300781 C 228.300781 144.300781 228.898438 144.601562 228.898438 144.898438 C 230.699219 152.699219 227.699219 160.199219 220.199219 166.199219 C 220.199219 166.5 219.898438 166.5 219.898438 166.5 Z M 219.898438 166.5 "/>
<path style=" stroke:none;fill-rule:nonzero;fill:rgb(27.843139%,16.862746%,16.078432%);fill-opacity:1;" d="M 207 173.699219 C 206.699219 173.699219 206.398438 173.398438 206.398438 173.101562 C 206.398438 172.800781 206.398438 172.199219 207 172.199219 C 207 172.199219 211.199219 170.699219 215.699219 168 C 216 167.699219 216.601562 168 216.601562 168.300781 C 216.898438 168.601562 216.601562 169.199219 216.300781 169.199219 C 211.5 172.199219 207.300781 173.398438 207 173.699219 Z M 207 173.699219 "/>
<path style=" stroke:none;fill-rule:nonzero;fill:rgb(27.843139%,16.862746%,16.078432%);fill-opacity:1;" d="M 117.300781 220.800781 C 109.199219 220.5 104.101562 214.5 102.300781 203.699219 C 102.300781 203.398438 102.601562 202.800781 102.898438 202.800781 C 103.199219 202.800781 103.800781 203.101562 103.800781 203.398438 C 105.601562 213.601562 110.101562 219 117.300781 219.300781 C 117.601562 219.300781 117.898438 219.601562 117.898438 220.199219 C 118.199219 220.5 117.898438 220.800781 117.300781 220.800781 Z M 117.300781 220.800781 "/>
<path style=" stroke:none;fill-rule:nonzero;fill:rgb(27.843139%,16.862746%,16.078432%);fill-opacity:1;" d="M 102.300781 197.101562 C 102 197.101562 101.699219 196.800781 101.398438 196.5 C 101.101562 189.601562 102 183.601562 102.300781 182.699219 C 102.300781 182.398438 102.898438 182.101562 103.199219 182.101562 C 103.5 182.101562 103.800781 182.699219 103.800781 183 C 103.800781 183.300781 102.601562 189.300781 102.898438 196.199219 C 103.199219 196.800781 102.898438 197.101562 102.300781 197.101562 Z M 102.300781 197.101562 "/>
</g>
</svg>
