<svg width="39" height="39" viewBox="0 0 39 39" fill="none" xmlns="http://www.w3.org/2000/svg">
<g clip-path="url(#clip0)">
<path d="M15.6 3.90003C15.6 6.05395 17.3461 7.80005 19.5 7.80005C21.654 7.80005 23.4001 6.05395 23.4001 3.90003C23.4001 1.7461 21.654 -7.63245e-08 19.5 -1.70475e-07C17.3461 -2.64627e-07 15.6 1.7461 15.6 3.90003Z" fill="#00C896"/>
<path d="M15.6 19.4999C15.6 21.6538 17.3461 23.3999 19.5 23.3999C21.654 23.3999 23.4001 21.6538 23.4001 19.4999C23.4001 17.346 21.654 15.5999 19.5 15.5999C17.3461 15.5999 15.6 17.346 15.6 19.4999Z" fill="#00C896"/>
<path d="M15.6 35.1C15.6 37.2539 17.3461 39 19.5 39C21.654 39 23.4001 37.2539 23.4001 35.1C23.4001 32.9461 21.654 31.2 19.5 31.2C17.3461 31.2 15.6 32.9461 15.6 35.1Z" fill="#00C896"/>
</g>
<defs>
<clipPath id="clip0">
<rect width="39" height="39" fill="white" transform="translate(39) rotate(90)"/>
</clipPath>
</defs>
</svg>
