<svg width="25" height="15" viewBox="0 0 25 15" fill="none" xmlns="http://www.w3.org/2000/svg">
<path d="M25 14.6221C24.1039 14.8501 23.5497 14.632 23.0526 13.8852C21.9364 12.2129 20.7043 10.6173 19.5154 8.99215C19.3621 8.78188 19.203 8.57555 19.0045 8.31419C17.5975 10.2125 16.1924 12.0204 14.8739 13.9009C14.4022 14.573 13.907 14.8658 13.0267 14.628L18.3167 7.52815L13.3922 1.11606C14.2391 0.950993 14.8247 1.03549 15.3435 1.79402C16.4892 3.46828 17.7527 5.06196 19.0123 6.74801C20.2798 5.06786 21.5277 3.4722 22.7067 1.81367C23.1803 1.14161 23.6893 0.886145 24.5401 1.13375C23.8956 1.98856 23.2648 2.82962 22.6301 3.66478C21.7733 4.79078 20.9322 5.93053 20.044 7.03295C19.7276 7.42597 19.7787 7.68143 20.0617 8.05283C21.7045 10.2125 23.3277 12.3937 25 14.6221Z" fill="white"/>
<path d="M0.369543 7.40981C0.511029 6.70042 0.605354 5.97726 0.801863 5.28162C1.98092 1.07043 6.81504 -0.680467 10.136 1.92917C12.0815 3.45998 12.5649 5.61765 12.4686 8.05043H1.5034C1.33833 12.4149 4.48051 15.0501 8.48537 13.706C9.89041 13.2343 10.7177 12.1339 11.1323 10.7583C11.3426 10.0686 11.6904 9.9605 12.3389 10.157C12.0068 11.8784 11.2542 13.3169 9.68211 14.2169C7.324 15.5649 3.9578 15.1287 2.18725 13.256C1.14182 12.1555 0.697713 10.7858 0.501204 9.30613C0.471727 9.07031 0.41081 8.83843 0.363647 8.60459C0.367578 8.20633 0.369543 7.80807 0.369543 7.40981ZM1.52305 7.11701H11.433C11.3682 3.96108 9.40307 1.71891 6.71679 1.69926C3.76915 1.67568 1.65078 3.86479 1.52305 7.11701Z" fill="white"/>
</svg>
