<svg width="88" height="133" viewBox="0 0 88 133" fill="none" xmlns="http://www.w3.org/2000/svg">
<path d="M22.0044 133C34.146 133 44 123.069 44 110.833V88.6665H22.0044C9.86282 88.6665 0.00878906 98.5972 0.00878906 110.833C0.00878906 123.069 9.86282 133 22.0044 133Z" fill="#0ACF83"/>
<path d="M0.00878906 66.5002C0.00878906 54.2642 9.86282 44.3335 22.0044 44.3335H44V88.6668H22.0044C9.86282 88.6668 0.00878906 78.7362 0.00878906 66.5002Z" fill="#A259FF"/>
<path d="M0.00878906 22.1667C0.00878906 9.93066 9.86282 0 22.0044 0H44V44.3333H22.0044C9.86282 44.3333 0.00878906 34.4027 0.00878906 22.1667Z" fill="#F24E1E"/>
<path d="M44 0H65.9956C78.1372 0 87.9912 9.93066 87.9912 22.1667C87.9912 34.4027 78.1372 44.3333 65.9956 44.3333H44V0Z" fill="#FF7262"/>
<path d="M87.9912 66.5002C87.9912 78.7362 78.1372 88.6668 65.9956 88.6668C53.854 88.6668 44 78.7362 44 66.5002C44 54.2642 53.854 44.3335 65.9956 44.3335C78.1372 44.3335 87.9912 54.2642 87.9912 66.5002Z" fill="#1ABCFE"/>
</svg>
