<svg width="7" height="17" viewBox="0 0 7 17" fill="none" xmlns="http://www.w3.org/2000/svg">
<path fill-rule="evenodd" clip-rule="evenodd" d="M6.97065 7.5394C6.92218 6.85448 6.77466 6.19401 6.5695 5.54698C6.1445 4.10222 5.46246 2.82361 4.50175 1.72345C4.25886 1.44519 3.98871 1.19024 3.81932 0.843923C3.71215 0.624863 3.61009 0.402801 3.50568 0.182025L3.43952 0C3.42838 0.0417529 3.42131 0.0566238 3.42091 0.0716377C3.4124 0.431542 3.22558 0.675625 2.9929 0.903407C2.73127 1.15979 2.48772 1.43804 2.23631 1.70672C1.97848 2.07678 1.72079 2.44683 1.46322 2.81675C1.25465 3.23499 1.04634 3.65323 0.838034 4.07148L0.42011 5.30362L0.407533 5.32278C0.177477 6.14754 0.064022 6.99547 0.00821142 7.85197C-0.0127503 8.17384 0.0110934 8.50043 0.0277318 8.82401C0.0514448 9.28658 0.125073 9.74129 0.235515 10.1888C0.636671 11.8149 1.45077 13.1637 2.56371 14.3097C2.77058 14.5226 2.98281 14.7162 3.19872 14.9188C3.23566 14.7808 3.26514 14.6428 3.29868 14.5048C3.33222 14.3674 3.36615 14.2307 3.38882 14.0929C3.36602 14.2307 3.34047 14.3674 3.31519 14.5048L3.20697 14.9188L3.30366 15.2764L3.39327 15.8318L3.43598 16.4113C3.43559 16.529 3.43126 16.647 3.43781 16.7645C3.43939 16.7945 3.47554 16.8223 3.49572 16.8511L3.67599 16.9202L3.86386 17L3.83163 16.4848L3.83019 15.9775L3.89504 15.2046L3.94207 15.0363L4.07662 14.7761C4.24274 14.6302 4.42105 14.4978 4.57237 14.3355C4.84618 14.0418 5.11934 13.7444 5.36433 13.4228C5.68229 13.0057 5.95584 12.5505 6.17542 12.0622C6.32241 11.7356 6.46076 11.4024 6.57526 11.0611C6.67614 10.7602 6.73863 10.4441 6.81816 10.1347C6.82523 10.1123 6.83466 10.0905 6.83912 10.0677C7.0034 9.23253 7.03105 8.3889 6.97065 7.5394V7.5394ZM3.87893 14.5995L3.77346 14.3474L3.87893 14.5995L4.03391 14.7439L3.87893 14.5995Z" fill="#479A06"/>
</svg>
