<svg width="15" height="17" viewBox="0 0 15 17" fill="none" xmlns="http://www.w3.org/2000/svg">
<path d="M14.4072 3.76683L8.22533 0.167021C7.83547 -0.0556736 7.32785 -0.0556736 6.93491 0.167021L0.687056 3.76683C0.28472 3.99894 0 4.43519 0 4.90181V12.0919C0 12.5585 0.29215 12.9949 0.694486 13.2283L2.34519 14.1685C3.13416 14.5582 3.41299 14.5582 3.77201 14.5582C4.94019 14.5582 5.60748 13.8498 5.60748 12.6142V5.51577C5.60748 5.41553 5.55547 5.26636 5.45734 5.26636H4.66907C4.56925 5.26636 4.34579 5.41553 4.34579 5.51563V12.614C4.34579 13.1618 3.85178 13.7068 2.9285 13.2439L1.22285 12.2579C1.16341 12.2256 1.1215 12.1605 1.1215 12.0919V4.90181C1.1215 4.83405 1.1993 4.766 1.25916 4.73127L7.48682 1.13765C7.545 1.10462 7.63051 1.10462 7.68855 1.13765L13.8402 4.73043C13.8991 4.766 13.8784 4.83194 13.8784 4.90181V12.0919C13.8784 12.1605 13.904 12.2273 13.8458 12.2603L7.66556 15.856C7.61257 15.8879 7.54682 15.8879 7.48879 15.856L5.90369 14.9072C5.85589 14.8793 5.79911 14.8694 5.75327 14.8951C5.31224 15.1458 5.23093 15.1791 4.81724 15.3229C4.71547 15.3585 4.56533 15.4202 4.87472 15.5941L6.94921 16.8248C7.14785 16.9401 7.37355 17 7.60065 17C7.83084 17 8.05626 16.9401 8.25491 16.8248L14.407 13.2283C14.8093 12.9932 15 12.5585 15 12.0919V4.90181C15 4.43519 14.8093 4.00007 14.4072 3.76683V3.76683ZM9.52009 10.9525C7.87626 10.9525 7.51416 10.4977 7.39346 9.67793C7.37944 9.58964 7.30472 9.48406 7.21514 9.48406H6.41173C6.31234 9.48406 6.23243 9.60497 6.23243 9.70422C6.23243 10.7539 6.80145 12.0256 9.52023 12.0256C11.4883 12.0256 12.6167 11.2587 12.6167 9.90147C12.6167 8.55574 11.7101 8.20258 9.80145 7.94924C7.8722 7.69351 7.67622 7.5643 7.67622 7.11104C7.67622 6.73735 7.8422 6.23896 9.2707 6.23896C10.5471 6.23896 11.0176 6.51367 11.2112 7.37647C11.2277 7.4576 11.3016 7.5158 11.385 7.5158H12.1916C12.2413 7.5158 12.2886 7.4957 12.3234 7.46013C12.3571 7.42189 12.3749 7.37394 12.3704 7.32249C12.2455 5.83673 11.2612 5.14433 9.27056 5.14433C7.49986 5.14433 6.44355 5.89424 6.44355 7.15125C6.44355 8.51469 7.49453 8.89147 9.1943 9.06004C11.2277 9.25996 11.3858 9.55801 11.3858 9.95911C11.3858 10.6557 10.8282 10.9525 9.52009 10.9525Z" fill="#539E42"/>
</svg>
