<svg width="16" height="17" viewBox="0 0 16 17" fill="none" xmlns="http://www.w3.org/2000/svg">
<path d="M7.78141 0.656376C7.13187 0.659534 6.51186 0.716218 5.96601 0.815377C4.3583 1.10685 4.06661 1.71696 4.06661 2.84229V4.32825H7.86557V4.82357H2.64075C1.53674 4.82357 0.569959 5.50458 0.267495 6.80059C-0.0814312 8.2856 -0.0968159 9.21245 0.267495 10.7632C0.537498 11.9175 1.18243 12.7399 2.28659 12.7399H3.59291V10.9585C3.59291 9.67146 4.67769 8.53634 5.96616 8.53634H9.76081C10.8171 8.53634 11.6602 7.6436 11.6602 6.55506V2.84245C11.6602 1.78565 10.7916 0.991905 9.76081 0.815535C9.10789 0.70406 8.4308 0.653376 7.78141 0.656376V0.656376ZM5.72693 1.85149C6.11924 1.85149 6.43986 2.18576 6.43986 2.59692C6.43986 3.00634 6.1194 3.33745 5.72693 3.33745C5.33308 3.33745 5.01415 3.00634 5.01415 2.59692C5.014 2.18576 5.33308 1.85149 5.72693 1.85149V1.85149Z" fill="url(#paint0_linear_803_185)"/>
<path d="M12.1339 4.82438V6.55587C12.1339 7.89798 11.025 9.02773 9.76064 9.02773H5.96599C4.9266 9.02773 4.06659 9.94085 4.06659 11.0092V14.7221C4.06659 15.7786 4.96167 16.4002 5.96599 16.7032C7.16846 17.0659 8.3217 17.1316 9.76064 16.7032C10.717 16.4189 11.66 15.847 11.66 14.7221V13.236H7.86555V12.7405H13.5598C14.6638 12.7405 15.0755 11.9502 15.4595 10.7638C15.8561 9.54247 15.839 8.36788 15.4595 6.80124C15.1865 5.67307 14.6655 4.82422 13.5598 4.82422H12.1339V4.82438ZM9.99957 14.2266C10.3936 14.2266 10.7125 14.5577 10.7125 14.9675C10.7125 15.3783 10.3934 15.7126 9.99957 15.7126C9.60726 15.7126 9.28679 15.3783 9.28679 14.9675C9.28679 14.5577 9.60726 14.2266 9.99957 14.2266Z" fill="url(#paint1_linear_803_185)"/>
<defs>
<linearGradient id="paint0_linear_803_185" x1="-0.380838" y1="1.12101" x2="8.5722" y2="8.56034" gradientUnits="userSpaceOnUse">
<stop stop-color="#5A9FD4"/>
<stop offset="1" stop-color="#306998"/>
</linearGradient>
<linearGradient id="paint1_linear_803_185" x1="11.678" y1="13.558" x2="8.42664" y2="9.11536" gradientUnits="userSpaceOnUse">
<stop stop-color="#FFD43B"/>
<stop offset="1" stop-color="#FFE873"/>
</linearGradient>
</defs>
</svg>
