<svg width="20" height="18" viewBox="0 0 20 18" fill="none" xmlns="http://www.w3.org/2000/svg">
<path d="M10.38 10.3416C11.3475 10.3416 12.1318 9.55728 12.1318 8.58975C12.1318 7.62222 11.3475 6.83789 10.38 6.83789C9.41245 6.83789 8.62811 7.62222 8.62811 8.58975C8.62811 9.55728 9.41245 10.3416 10.38 10.3416Z" fill="#87DBFF"/>
<path d="M17.0341 5.70122C16.696 5.57829 16.3426 5.45535 15.9738 5.34778C16.066 4.97897 16.1428 4.61015 16.2043 4.25671C16.527 2.22824 16.1735 0.799093 15.19 0.245875C14.8981 0.0768358 14.5754 0 14.2065 0C13.1308 0 11.7632 0.799093 10.3801 2.13604C8.99706 0.799093 7.62938 0 6.55368 0C6.18487 0 5.86216 0.0768358 5.57018 0.245875C4.58668 0.814461 4.23324 2.24361 4.55595 4.25671C4.61742 4.61015 4.69425 4.97897 4.78646 5.34778C4.41764 5.45535 4.0642 5.56292 3.72612 5.70122C1.80522 6.43885 0.760254 7.45308 0.760254 8.59026C0.760254 9.72743 1.82059 10.7417 3.72612 11.4793C4.0642 11.6022 4.41764 11.7252 4.78646 11.8327C4.69425 12.2015 4.61742 12.5704 4.55595 12.9238C4.23324 14.9523 4.58668 16.3814 5.57018 16.9346C5.86216 17.1037 6.18487 17.1805 6.55368 17.1805C7.64475 17.1805 9.01243 16.3814 10.3801 15.0445C11.7632 16.3814 13.1308 17.1805 14.2065 17.1805C14.5754 17.1805 14.8981 17.1037 15.19 16.9346C16.1735 16.3661 16.527 14.9369 16.2043 12.9238C16.1428 12.5704 16.066 12.2015 15.9738 11.8327C16.3426 11.7252 16.696 11.6176 17.0341 11.4793C18.955 10.7417 20 9.72743 20 8.59026C20 7.45308 18.955 6.43885 17.0341 5.70122ZM14.7598 1.01423C15.3898 1.38305 15.605 2.52022 15.3437 4.13377C15.2976 4.45648 15.2208 4.79456 15.1286 5.14801C14.3295 4.9636 13.4843 4.84066 12.593 4.76383C12.0705 4.0262 11.5326 3.36541 10.9948 2.76609C12.132 1.64429 13.2845 0.875929 14.2219 0.875929C14.4217 0.875929 14.6061 0.922031 14.7598 1.01423V1.01423ZM13.0386 10.127C12.762 10.6187 12.4393 11.1105 12.1012 11.6022C11.5326 11.6483 10.9641 11.6637 10.3801 11.6637C9.78079 11.6637 9.2122 11.6483 8.65899 11.6022C8.32091 11.1105 8.01356 10.6187 7.73695 10.127C7.44498 9.61986 7.16837 9.09737 6.92249 8.59026C7.16837 8.08314 7.44498 7.56065 7.73695 7.05354C8.01356 6.56179 8.33628 6.07004 8.67435 5.57829C9.24294 5.53219 9.81152 5.51682 10.3955 5.51682C10.9948 5.51682 11.5634 5.53219 12.1166 5.57829C12.4547 6.07004 12.762 6.56179 13.0386 7.05354C13.3306 7.56065 13.6072 8.08314 13.8531 8.59026C13.5919 9.09737 13.3306 9.60449 13.0386 10.127ZM14.3141 9.61986C14.5446 10.1577 14.729 10.6802 14.8981 11.2027C14.3756 11.3256 13.8224 11.4178 13.2384 11.4947C13.4228 11.2027 13.6226 10.8953 13.7916 10.5726C13.976 10.2499 14.1451 9.9272 14.3141 9.61986ZM10.3801 13.7844C10.0113 13.3848 9.65785 12.9545 9.31977 12.5089C9.67322 12.5243 10.0267 12.5396 10.3801 12.5396C10.7336 12.5396 11.087 12.5243 11.4404 12.5089C11.1024 12.9545 10.7489 13.3848 10.3801 13.7844ZM7.52181 11.4793C6.93786 11.4025 6.38464 11.3102 5.86216 11.1873C6.0312 10.6802 6.2156 10.1423 6.44611 9.60449C6.61515 9.91183 6.78419 10.2345 6.9686 10.5419C7.153 10.88 7.33741 11.1719 7.52181 11.4793V11.4793ZM6.44611 7.56065C6.2156 7.0228 6.0312 6.50032 5.86216 5.97783C6.38464 5.8549 6.93786 5.76269 7.52181 5.68586C7.33741 5.97783 7.13763 6.28518 6.9686 6.60789C6.78419 6.9306 6.61515 7.25331 6.44611 7.56065V7.56065ZM10.3801 3.39615C10.7489 3.79569 11.1024 4.22598 11.4404 4.67162C11.087 4.65626 10.7336 4.64089 10.3801 4.64089C10.0267 4.64089 9.67322 4.65626 9.31977 4.67162C9.65785 4.22598 10.0113 3.79569 10.3801 3.39615V3.39615ZM13.7916 6.62326L13.2384 5.70122C13.8224 5.77806 14.3756 5.87026 14.8981 5.9932C14.729 6.50032 14.5446 7.03817 14.3141 7.57602C14.1451 7.25331 13.976 6.9306 13.7916 6.62326V6.62326ZM5.41651 4.13377C5.15527 2.52022 5.37041 1.38305 6.00046 1.01423C6.15413 0.922031 6.33854 0.875929 6.53831 0.875929C7.46035 0.875929 8.61288 1.62892 9.76542 2.76609C9.22757 3.35005 8.68972 4.0262 8.16724 4.76383C7.27594 4.84066 6.43074 4.97897 5.63165 5.14801C5.53945 4.79456 5.47798 4.45648 5.41651 4.13377ZM1.62082 8.59026C1.62082 7.868 2.49675 7.09964 4.03346 6.53105C4.34081 6.40812 4.67889 6.30055 5.01696 6.20834C5.26284 6.9767 5.57018 7.79116 5.93899 8.60562C5.57018 9.42008 5.24747 10.2192 5.01696 10.9875C2.89629 10.3728 1.62082 9.45082 1.62082 8.59026V8.59026ZM6.00046 16.1663C5.37041 15.7975 5.15527 14.6603 5.41651 13.0467C5.46261 12.724 5.53945 12.386 5.63165 12.0325C6.43074 12.2169 7.27594 12.3398 8.16724 12.4167C8.68972 13.1543 9.22757 13.8151 9.76542 14.4144C8.62825 15.5362 7.47571 16.3046 6.53831 16.3046C6.33854 16.3046 6.15413 16.2585 6.00046 16.1663ZM15.3437 13.0467C15.605 14.6603 15.3898 15.7975 14.7598 16.1663C14.6061 16.2585 14.4217 16.3046 14.2219 16.3046C13.2999 16.3046 12.1473 15.5516 10.9948 14.4144C11.5326 13.8305 12.0705 13.1543 12.593 12.4167C13.4843 12.3398 14.3295 12.2015 15.1286 12.0325C15.2208 12.386 15.2822 12.724 15.3437 13.0467V13.0467ZM16.7268 10.6495C16.4194 10.7724 16.0813 10.88 15.7433 10.9722C15.4974 10.2038 15.19 9.38935 14.8212 8.57489C15.19 7.76043 15.5127 6.96133 15.7433 6.19298C17.8639 6.80766 19.1394 7.72969 19.1394 8.59026C19.1394 9.31251 18.2481 10.0809 16.7268 10.6495V10.6495Z" fill="#87DBFF"/>
</svg>
