<svg width="17" height="17" viewBox="0 0 17 17" fill="none" xmlns="http://www.w3.org/2000/svg">
<path d="M7.45218 8.9854L9.70612 7.68164L11.9279 8.9854L9.70612 10.2684L7.45218 9.01605V8.9854Z" fill="#F6BD3A"/>
<path d="M0.688232 5.12194L9.70614 0L16.4162 3.81443L14.1856 7.68254L9.70614 5.12194L2.94378 8.96048L0.688232 5.12194Z" fill="#F6BD3A"/>
<path d="M7.45221 14.1085V11.5552L9.6754 10.2694L11.9279 8.98647V11.5552L9.70615 12.8313V15.3862L7.45221 16.6953V14.1085ZM7.45221 8.98647L5.19912 7.70992L2.94379 8.96043V6.40198L9.70615 2.56055V7.68249L7.45221 8.98647ZM14.1549 6.40208V5.122L16.4162 3.81449L16.4388 6.37519L14.1856 7.6826L14.1549 6.40208Z" fill="#EB8C23"/>
<path d="M5.19912 15.3389V7.70981L7.42145 6.45973L7.4522 8.98636L9.70614 10.2462V12.8312L7.4522 11.6315V16.6951L5.19912 15.3389ZM1.79977 8.29441L0.688232 7.62892V5.122L2.94378 6.40209V8.96054L1.79977 8.29441ZM9.70614 5.12189V2.56055L14.1549 5.12189L14.1856 7.68249L9.70614 5.12189Z" fill="#E35A2B"/>
</svg>
