<svg width="49" height="49" viewBox="0 0 49 49" fill="none" xmlns="http://www.w3.org/2000/svg">
<path d="M44.9805 12.8243L45.0953 12.7478C44.8656 12.3267 44.5211 11.9438 44.1766 11.7524L25.6867 1.11025C25.3805 0.918848 24.9594 0.842285 24.5 0.842285C24.0406 0.842285 23.6195 0.957129 23.3133 1.11025L4.93828 11.7907C4.2875 12.1735 3.82812 13.1306 3.82812 13.8579V35.1806C3.82812 35.6017 3.90469 36.061 4.17266 36.4821L4.09609 36.5204C4.2875 36.8267 4.55547 37.0946 4.82344 37.2478L23.275 47.9282C23.5812 48.1196 24.0023 48.1962 24.4617 48.1962C24.9211 48.1962 25.3422 48.0814 25.6484 47.9282L44.0234 37.2478C44.6742 36.8649 45.1336 35.9079 45.1336 35.1806V13.8196C45.1719 13.5134 45.1336 13.1688 44.9805 12.8243ZM24.5 33.879C27.9836 33.879 31.0461 31.9649 32.6539 29.1321L37.5922 32.0415C34.9891 36.5587 30.0891 39.6212 24.5 39.6212C16.1547 39.6212 9.37891 32.8454 9.37891 24.5001C9.37891 16.1548 16.1547 9.379 24.5 9.379C30.1273 9.379 35.0273 12.4798 37.6305 17.0353L32.6539 19.9063C31.0461 17.0353 27.9836 15.1212 24.5 15.1212C19.332 15.1212 15.1211 19.3321 15.1211 24.5001C15.1211 29.6681 19.332 33.879 24.5 33.879Z" fill="white"/>
</svg>
