<svg width="29" height="29" viewBox="0 0 29 29" fill="none" xmlns="http://www.w3.org/2000/svg">
<path fill-rule="evenodd" clip-rule="evenodd" d="M25.3748 7.19907C25.3857 7.93253 25.2939 8.85207 25.2129 9.52269C25.1873 9.74424 25.1469 9.96384 25.0921 10.18C26.1264 12.0952 26.5832 14.3995 26.5832 16.9165C26.5832 19.8987 25.1489 22.3552 22.9147 24.0299C20.701 25.689 17.714 26.5832 14.4998 26.5832C11.2857 26.5832 8.29867 25.689 6.085 24.0299C3.8508 22.3552 2.4165 19.8987 2.4165 16.9165C2.4165 14.3995 2.87205 12.0952 3.9088 10.18C3.854 9.96383 3.81363 9.74424 3.78796 9.52269C3.70459 8.85207 3.61275 7.93253 3.62484 7.19907C3.63692 6.37378 3.74567 5.54849 3.8653 4.72924C3.92088 4.34982 4.00788 3.99336 4.41992 3.76861C4.84042 3.53903 5.28267 3.62361 5.71888 3.74807C7.19063 4.16494 8.57055 4.75099 9.8683 5.45182C11.2373 5.04219 12.7816 4.83315 14.4998 4.83315C16.2181 4.83315 17.7623 5.04219 19.1302 5.45303C20.4461 4.73359 21.8378 4.16219 23.2796 3.74928C23.7158 3.62482 24.1593 3.53903 24.5785 3.76861C24.9894 3.99336 25.0776 4.34982 25.1344 4.72924C25.2528 5.54849 25.3628 6.37378 25.3748 7.19907ZM24.1665 16.9165C24.1665 14.878 23.6977 12.0832 21.1457 12.0832C19.9953 12.0832 18.9066 12.3852 17.8191 12.6873C16.7328 12.9894 15.6478 13.2915 14.4998 13.2915C13.3519 13.2915 12.2668 12.9894 11.1805 12.6873C10.093 12.3852 9.00555 12.0832 7.854 12.0832C5.30925 12.0832 4.83317 14.8865 4.83317 16.9165C4.83317 19.048 5.83246 20.8206 7.535 22.0966C9.25567 23.3883 11.7086 24.1665 14.4998 24.1665C17.2911 24.1665 19.7428 23.3871 21.4647 22.0966C23.1672 20.8194 24.1665 19.048 24.1665 16.9165ZM12.0832 17.5207C12.0832 19.1882 11.2712 20.5415 10.2707 20.5415C9.27017 20.5415 8.45817 19.1882 8.45817 17.5207C8.45817 15.8532 9.27017 14.4998 10.2707 14.4998C11.2712 14.4998 12.0832 15.8532 12.0832 17.5207ZM18.729 20.5415C19.7295 20.5415 20.5415 19.1882 20.5415 17.5207C20.5415 15.8532 19.7295 14.4998 18.729 14.4998C17.7285 14.4998 16.9165 15.8532 16.9165 17.5207C16.9165 19.1882 17.7285 20.5415 18.729 20.5415Z" fill="white"/>
</svg>
