<svg width="42" height="56" viewBox="0 0 42 56" fill="none" xmlns="http://www.w3.org/2000/svg">
<path d="M13.2211 42.7215C13.2211 42.7215 11.0953 43.926 14.7359 44.3324C19.1472 44.823 21.4014 44.7527 26.2612 43.8582C26.2612 43.8582 27.5415 44.6376 29.3262 45.3132C18.4279 49.8594 4.66219 45.0497 13.2211 42.7215ZM11.8886 36.7881C11.8886 36.7881 9.50375 38.5071 13.1475 38.8744C17.8597 39.3482 21.5802 39.3868 28.0214 38.1797C28.0214 38.1797 28.9101 39.059 30.3099 39.5392C17.136 43.2907 2.46282 39.8345 11.8886 36.7881Z" fill="white"/>
<path d="M23.1135 26.7225C25.8003 29.7337 22.4089 32.441 22.4089 32.441C22.4089 32.441 29.2269 29.0147 26.0964 24.7222C23.1715 20.721 20.9293 18.7336 33.0687 11.8784C33.0687 11.8789 14.0132 16.5114 23.1135 26.7225Z" fill="white"/>
<path d="M37.5274 47.1107C37.5274 47.1107 39.1011 48.3742 35.7936 49.3508C29.505 51.2057 9.6143 51.7649 4.09001 49.425C2.10514 48.5835 5.82873 47.4168 7.00021 47.1706C8.22164 46.9131 8.91908 46.96 8.91908 46.96C6.71035 45.446 -5.35676 49.9343 2.79054 51.2217C25.0077 54.7284 43.2894 49.6425 37.5274 47.1107ZM14.2445 30.6392C14.2445 30.6392 4.12792 32.9791 10.6623 33.8297C13.4217 34.1892 18.9202 34.1067 24.0453 33.6882C28.2327 33.3456 32.4348 32.6139 32.4348 32.6139C32.4348 32.6139 30.9596 33.2301 29.8912 33.9396C19.6158 36.5713 -0.229355 35.3455 5.48446 32.6552C10.3149 30.3804 14.2445 30.6392 14.2445 30.6392ZM32.3929 40.516C42.8372 35.2331 38.0077 30.1559 34.6368 30.8398C33.8127 31.007 33.4431 31.1524 33.4431 31.1524C33.4431 31.1524 33.7499 30.6839 34.3349 30.4824C41.0031 28.2007 46.1305 37.2139 32.1842 40.7839C32.1842 40.783 32.3443 40.6419 32.3929 40.516Z" fill="white"/>
<path d="M26.0968 0.807617C26.0968 0.807617 31.8797 6.44184 20.6104 15.1029C11.573 22.0528 18.5497 26.0144 20.6073 30.5428C15.3313 25.9085 11.4615 21.8283 14.0573 18.0312C17.8692 12.4586 28.4295 9.75569 26.0968 0.807617Z" fill="white"/>
<path d="M15.2709 54.8371C25.2938 55.4611 40.6894 54.4898 41.0537 49.8716C41.0537 49.8716 40.3531 51.6223 32.7695 53.0113C24.2137 54.5796 13.6592 54.3968 7.40137 53.3908C7.40137 53.3912 8.68344 54.4246 15.2709 54.8371Z" fill="white"/>
</svg>
