<svg width="54" height="54" viewBox="0 0 54 54" fill="none" xmlns="http://www.w3.org/2000/svg">
<path d="M0.59375 0.594238H53.4058V53.4067H0.59375V0.594238Z" fill="white"/>
<path d="M49.084 40.8103C48.6971 38.401 47.1261 36.3772 42.4724 34.4902C40.8557 33.7473 39.0535 33.2153 38.5164 31.9902C38.3257 31.2772 38.3004 30.8756 38.4211 30.444C38.7674 29.0434 40.4393 28.6067 41.7644 29.0084C42.6179 29.2944 43.4258 29.9521 43.9131 31.0013C46.192 29.5256 46.1874 29.5353 47.7787 28.5211C47.1961 27.6179 46.8852 27.201 46.5038 26.8146C45.1331 25.2836 43.2655 24.4951 40.2786 24.5555L38.7227 24.7567C37.2318 25.1334 35.8109 25.916 34.9777 26.9652C32.4777 29.8019 33.1907 34.7665 36.2328 36.8097C39.2298 39.0591 43.6325 39.5708 44.1949 41.6743C44.742 44.2494 42.3023 45.0831 39.8774 44.7869C38.0903 44.4152 37.0964 43.5069 36.0219 41.8553C34.0441 42.9998 34.0441 42.9998 32.0107 44.1693C32.4929 45.2235 32.9996 45.7007 33.8079 46.614C37.6334 50.4944 47.2066 50.3038 48.9237 44.4304C48.9933 44.2288 49.4557 42.8838 49.084 40.8103ZM29.3044 24.8664H24.3646L24.3444 37.6374C24.3444 40.3534 24.4849 42.8433 24.0432 43.6065C23.3205 45.1075 21.4478 44.9215 20.5943 44.6304C19.7257 44.2034 19.284 43.5964 18.7723 42.7383C18.6318 42.4919 18.5263 42.3012 18.4909 42.2864L14.4746 44.746C15.1424 46.1166 16.1263 47.3063 17.3864 48.0792C19.2688 49.209 21.7988 49.5554 24.4448 48.9479C26.1669 48.4462 27.6527 47.4072 28.4307 45.8256C29.5554 43.752 29.3141 41.2423 29.3039 38.4664C29.3293 33.9375 29.3044 29.4096 29.3044 24.8664Z" fill="#141F2F"/>
</svg>
