<svg width="29" height="29" viewBox="0 0 29 29" fill="none" xmlns="http://www.w3.org/2000/svg">
<path fill-rule="evenodd" clip-rule="evenodd" d="M7.24984 2.4165C5.96796 2.4165 4.73858 2.92573 3.83215 3.83215C2.92573 4.73858 2.4165 5.96796 2.4165 7.24984V21.7498C2.4165 23.0317 2.92573 24.2611 3.83215 25.1675C4.73858 26.0739 5.96796 26.5832 7.24984 26.5832H21.7498C23.0317 26.5832 24.2611 26.0739 25.1675 25.1675C26.0739 24.2611 26.5832 23.0317 26.5832 21.7498V7.24984C26.5832 5.96796 26.0739 4.73858 25.1675 3.83215C24.2611 2.92573 23.0317 2.4165 21.7498 2.4165H7.24984ZM4.83317 7.24984C4.83317 6.6089 5.08778 5.99421 5.541 5.541C5.99421 5.08778 6.6089 4.83317 7.24984 4.83317H21.7498C22.3908 4.83317 23.0055 5.08778 23.4587 5.541C23.9119 5.99421 24.1665 6.6089 24.1665 7.24984V21.7498C24.1665 22.3908 23.9119 23.0055 23.4587 23.4587C23.0055 23.9119 22.3908 24.1665 21.7498 24.1665H7.24984C6.6089 24.1665 5.99421 23.9119 5.541 23.4587C5.08778 23.0055 4.83317 22.3908 4.83317 21.7498V7.24984ZM10.8748 13.2915C10.8748 12.971 10.7475 12.6637 10.5209 12.4371C10.2943 12.2105 9.98697 12.0832 9.6665 12.0832C9.34603 12.0832 9.03869 12.2105 8.81208 12.4371C8.58548 12.6637 8.45817 12.971 8.45817 13.2915V20.5415C8.45817 20.862 8.58548 21.1693 8.81208 21.3959C9.03869 21.6225 9.34603 21.7498 9.6665 21.7498C9.98697 21.7498 10.2943 21.6225 10.5209 21.3959C10.7475 21.1693 10.8748 20.862 10.8748 20.5415V13.2915ZM11.479 9.06234C11.479 9.54304 11.288 10.0041 10.9481 10.344C10.6082 10.6839 10.1472 10.8748 9.6665 10.8748C9.1858 10.8748 8.72478 10.6839 8.38487 10.344C8.04496 10.0041 7.854 9.54304 7.854 9.06234C7.854 8.58163 8.04496 8.12062 8.38487 7.78071C8.72478 7.4408 9.1858 7.24984 9.6665 7.24984C10.1472 7.24984 10.6082 7.4408 10.9481 7.78071C11.288 8.12062 11.479 8.58163 11.479 9.06234ZM14.4998 12.0832C14.9107 12.0832 15.2732 12.2886 15.4907 12.6003C16.1135 12.2609 16.8114 12.0831 17.5207 12.0832C20.1307 12.0832 21.7498 14.4104 21.7498 16.3981V20.5415C21.7498 20.862 21.6225 21.1693 21.3959 21.3959C21.1693 21.6225 20.862 21.7498 20.5415 21.7498C20.221 21.7498 19.9137 21.6225 19.6871 21.3959C19.4605 21.1693 19.3332 20.862 19.3332 20.5415V16.3969C19.3332 15.4689 18.5357 14.4986 17.5207 14.4986C16.8875 14.4986 16.1879 14.843 15.7082 15.6623V20.5415C15.7082 20.862 15.5809 21.1693 15.3543 21.3959C15.1277 21.6225 14.8203 21.7498 14.4998 21.7498C14.1794 21.7498 13.872 21.6225 13.6454 21.3959C13.4188 21.1693 13.2915 20.862 13.2915 20.5415V13.2915C13.2915 12.971 13.4188 12.6637 13.6454 12.4371C13.872 12.2105 14.1794 12.0832 14.4998 12.0832Z" fill="white"/>
</svg>
