<svg width="50" height="50" viewBox="0 0 50 50" fill="none" xmlns="http://www.w3.org/2000/svg">
<path d="M45.6825 38.2057C43.0017 38.1326 40.9544 38.3822 39.204 39.1201C38.7068 39.3299 37.913 39.3357 37.8318 39.9588C38.1052 40.2451 38.1478 40.6732 38.365 41.0256C38.7829 41.7014 39.4884 42.6084 40.1181 43.0834C40.8064 43.6029 41.5153 44.158 42.2528 44.6076C43.5646 45.4072 45.029 45.8643 46.2919 46.6654C47.0364 47.1381 47.7759 47.733 48.5021 48.2658C48.8614 48.5295 49.1025 48.9393 49.5693 49.1045V49.0287C49.3239 48.7162 49.2607 48.2873 49.0357 47.9611L48.0446 46.9701C47.0759 45.6842 45.8458 44.5545 44.5384 43.6166C43.4958 42.8682 41.1626 41.8572 40.7278 40.6443L40.6517 40.5682C41.3907 40.4846 42.256 40.2174 42.9384 40.0342C44.0845 39.7271 45.1087 39.8064 46.2919 39.501L47.8923 39.0436V38.7389C47.2943 38.1252 46.8677 37.3127 46.2157 36.7572C44.5087 35.3041 42.6462 33.8521 40.7282 32.6412C39.6642 31.9701 38.3497 31.5338 37.222 30.9646C36.8427 30.7729 36.1763 30.6732 35.9259 30.3545C35.3333 29.5998 35.0111 28.6428 34.5544 27.7635C33.5978 25.9209 32.6583 23.9088 31.8107 21.9701C31.2325 20.6482 30.8548 19.3451 30.1337 18.1592C26.6728 12.4689 22.9478 9.03496 17.1771 5.65918C15.9489 4.94121 14.4704 4.65801 12.9079 4.28692C12.07 4.23652 11.2314 4.18535 10.3931 4.13418C9.88097 3.9209 9.34894 3.29473 8.86886 2.99082C6.95714 1.78301 2.05324 -0.843944 0.637611 2.60996C-0.256529 4.79004 1.97394 6.9166 2.77121 8.02168C3.33136 8.7959 4.04816 9.66504 4.44816 10.5365C4.71144 11.1096 4.75675 11.6842 4.98214 12.29C5.53566 13.783 6.01808 15.4072 6.73488 16.7865C7.09699 17.485 7.49621 18.2201 7.95441 18.8443C8.23488 19.2275 8.71652 19.3963 8.7923 19.9877C8.32199 20.6463 8.29503 21.6689 8.03058 22.5033C6.83917 26.2592 7.28878 30.9279 9.0216 33.7076C9.55285 34.5615 10.8056 36.3916 12.5275 35.6893C14.0337 35.076 13.6974 33.1744 14.1282 31.4971C14.2255 31.117 14.1657 30.8373 14.3568 30.5826V30.6588L15.729 33.4025C16.7446 35.0381 18.5462 36.7471 20.0735 37.9002C20.8653 38.4982 21.4888 39.5318 22.5126 39.8818V39.8053H22.4364C22.238 39.4963 21.9275 39.3682 21.6743 39.1197C21.0778 38.535 20.4146 37.808 19.9216 37.1381C18.5325 35.2525 17.3052 33.1889 16.1868 31.0408C15.6525 30.0146 15.188 28.8834 14.738 27.8393C14.5646 27.4369 14.5669 26.8279 14.2052 26.6197C13.7118 27.3846 12.9857 28.0033 12.6044 28.9064C11.9946 30.3502 11.9161 32.1111 11.69 33.9369C11.5564 33.9846 11.6157 33.9518 11.5372 34.0127C10.4755 33.7568 10.1028 32.6643 9.70792 31.7264C8.71027 29.3553 8.52472 25.5381 9.40285 22.8088C9.63019 22.1021 10.6568 19.8787 10.2411 19.226C10.0427 18.5752 9.388 18.1986 9.02199 17.7014C8.56847 17.0865 8.11613 16.2772 7.80167 15.567C6.98527 13.7189 6.60402 11.6436 5.74425 9.77481C5.33292 8.88145 4.638 7.97715 4.0673 7.1834C3.43566 6.30332 2.72785 5.65527 2.238 4.5916C2.06378 4.21348 1.82746 3.60801 2.08527 3.21934C2.1673 2.95723 2.28371 2.84785 2.54269 2.76231C2.98488 2.42129 4.21613 2.87559 4.67628 3.0666C5.89855 3.57442 6.91886 4.05801 7.95441 4.74395C8.45089 5.07363 8.95402 5.71074 9.5548 5.88731H10.2407C11.3138 6.13379 12.5157 5.96348 13.5185 6.26817C15.2903 6.80645 16.8782 7.64434 18.32 8.55488C22.713 11.3291 26.3052 15.2775 28.7622 19.9881C29.1575 20.7467 29.3286 21.4701 29.6767 22.2748C30.379 23.8971 31.2638 25.5662 31.9626 27.1529C32.6603 28.7357 33.34 30.333 34.3259 31.6502C34.8443 32.3424 36.8458 32.7139 37.756 33.0986C38.3935 33.3678 39.4384 33.649 40.0427 34.0127C41.1962 34.7088 42.3142 35.5373 43.3966 36.2998C43.9368 36.6807 45.5997 37.517 45.6825 38.2057ZM11.6126 9.16621C11.0536 9.15566 10.6583 9.22715 10.2403 9.31816V9.39434H10.3165C10.5833 9.94199 11.054 10.2951 11.3833 10.7666C11.6372 11.3006 11.8915 11.8338 12.1458 12.367L12.2216 12.2916C12.6939 11.9584 12.9099 11.4268 12.9071 10.6143C12.7181 10.4154 12.6903 10.1662 12.5263 9.92871C12.3091 9.61191 11.8876 9.43184 11.6126 9.16621Z" fill="white"/>
</svg>
