<svg width="50" height="51" viewBox="0 0 50 51" fill="none" xmlns="http://www.w3.org/2000/svg">
<path d="M24.4512 0.000391774C22.4248 0.0102434 20.4906 0.187081 18.7878 0.496423C13.7722 1.40573 12.8622 3.30908 12.8622 6.81972V11.4554H24.7137V13.0007H8.41404C4.96989 13.0007 1.95387 15.1252 1.01028 19.1683C-0.078257 23.801 -0.126252 26.6925 1.01028 31.5302C1.8526 35.1315 3.86456 37.6968 7.30919 37.6968H11.3845V32.1395C11.3845 28.1245 14.7686 24.5833 18.7882 24.5833H30.6263C33.9216 24.5833 36.5518 21.7982 36.5518 18.4023V6.82021C36.5518 3.52335 33.842 1.04713 30.6263 0.496916C28.5894 0.149152 26.4771 -0.00896731 24.4512 0.000391774ZM18.0419 3.72876C19.2658 3.72876 20.266 4.77156 20.266 6.05424C20.266 7.33151 19.2663 8.36446 18.0419 8.36446C16.8132 8.36446 15.8183 7.33151 15.8183 6.05424C15.8178 4.77156 16.8132 3.72876 18.0419 3.72876Z" fill="white"/>
<path d="M38.0296 13V18.4017C38.0296 22.5886 34.5701 26.1131 30.6259 26.1131H18.7878C15.5452 26.1131 12.8623 28.9617 12.8623 32.2945V43.8776C12.8623 47.1735 15.6547 49.1128 18.7878 50.0581C22.5391 51.1895 26.1369 51.3944 30.6259 50.0581C33.6092 49.1709 36.5514 47.3868 36.5514 43.8776V39.2414H24.7138V37.6957H42.4778C45.922 37.6957 47.2063 35.2303 48.4043 31.529C49.6416 27.7189 49.5883 24.0546 48.4043 19.1672C47.5528 15.6476 45.9272 12.9995 42.4778 12.9995H38.0296V13ZM31.3712 42.3319C32.6004 42.3319 33.5953 43.3648 33.5953 44.6431C33.5953 45.9248 32.5999 46.9676 31.3712 46.9676C30.1473 46.9676 29.1476 45.9248 29.1476 44.6431C29.1476 43.3648 30.1473 42.3319 31.3712 42.3319Z" fill="white"/>
</svg>
