<svg width="62" height="56" viewBox="0 0 62 56" fill="none" xmlns="http://www.w3.org/2000/svg">
<path d="M31.4664 33.5979C34.534 33.5979 37.0208 31.1111 37.0208 28.0436C37.0208 24.976 34.534 22.4893 31.4664 22.4893C28.3989 22.4893 25.9121 24.976 25.9121 28.0436C25.9121 31.1111 28.3989 33.5979 31.4664 33.5979Z" fill="white"/>
<path d="M52.5635 18.8835C51.4916 18.4937 50.371 18.104 49.2017 17.7629C49.494 16.5936 49.7376 15.4242 49.9325 14.3036C50.9557 7.87232 49.8351 3.34117 46.7169 1.58717C45.7911 1.05123 44.768 0.807617 43.5986 0.807617C40.1881 0.807617 35.8518 3.34117 31.4668 7.57999C27.0818 3.34117 22.7456 0.807617 19.335 0.807617C18.1657 0.807617 17.1425 1.05123 16.2168 1.58717C13.0986 3.38989 11.978 7.92104 13.0012 14.3036C13.196 15.4242 13.4397 16.5936 13.732 17.7629C12.5627 18.104 11.4421 18.445 10.3702 18.8835C4.2799 21.2222 0.966797 24.4378 0.966797 28.0433C0.966797 31.6487 4.32862 34.8644 10.3702 37.203C11.4421 37.5928 12.5627 37.9826 13.732 38.3236C13.4397 39.493 13.196 40.6623 13.0012 41.7829C11.978 48.2142 13.0986 52.7454 16.2168 54.4994C17.1425 55.0353 18.1657 55.2789 19.335 55.2789C22.7943 55.2789 27.1306 52.7454 31.4668 48.5066C35.8518 52.7454 40.1881 55.2789 43.5986 55.2789C44.768 55.2789 45.7911 55.0353 46.7169 54.4994C49.8351 52.6967 50.9557 48.1655 49.9325 41.7829C49.7376 40.6623 49.494 39.493 49.2017 38.3236C50.371 37.9826 51.4916 37.6415 52.5635 37.203C58.6538 34.8644 61.9669 31.6487 61.9669 28.0433C61.9669 24.4378 58.6538 21.2222 52.5635 18.8835ZM45.3526 4.02328C47.3502 5.19261 48.0324 8.79804 47.2041 13.9139C47.0579 14.937 46.8143 16.0089 46.522 17.1295C43.9884 16.5449 41.3087 16.1551 38.4828 15.9115C36.8263 13.5728 35.121 11.4778 33.4157 9.5776C37.0212 6.02088 40.6753 3.58478 43.6474 3.58478C44.2808 3.58478 44.8654 3.73094 45.3526 4.02328ZM39.8958 32.9155C39.0188 34.4746 37.9956 36.0337 36.9237 37.5928C35.121 37.739 33.3183 37.7877 31.4668 37.7877C29.5667 37.7877 27.764 37.739 26.01 37.5928C24.9381 36.0337 23.9636 34.4746 23.0866 32.9155C22.1609 31.3077 21.2839 29.6511 20.5044 28.0433C21.2839 26.4354 22.1609 24.7789 23.0866 23.1711C23.9636 21.612 24.9868 20.0529 26.0587 18.4937C27.8614 18.3476 29.6641 18.2989 31.5156 18.2989C33.4157 18.2989 35.2184 18.3476 36.9724 18.4937C38.0443 20.0529 39.0188 21.612 39.8958 23.1711C40.8215 24.7789 41.6985 26.4354 42.478 28.0433C41.6498 29.6511 40.8215 31.2589 39.8958 32.9155ZM43.9397 31.3077C44.6705 33.0129 45.2552 34.6695 45.7911 36.326C44.1346 36.7158 42.3806 37.0081 40.5291 37.2518C41.1138 36.326 41.7472 35.3516 42.2831 34.3284C42.8678 33.3053 43.4038 32.2821 43.9397 31.3077ZM31.4668 44.5114C30.2975 43.2446 29.1769 41.8804 28.105 40.4674C29.2256 40.5161 30.3462 40.5649 31.4668 40.5649C32.5874 40.5649 33.7081 40.5161 34.8287 40.4674C33.7568 41.8804 32.6362 43.2446 31.4668 44.5114ZM22.4045 37.203C20.5531 36.9594 18.7991 36.6671 17.1425 36.2773C17.6785 34.6695 18.2631 32.9642 18.994 31.2589C19.5299 32.2334 20.0659 33.2565 20.6505 34.231C21.2352 35.3029 21.8199 36.2286 22.4045 37.203ZM18.994 24.7789C18.2631 23.0736 17.6785 21.4171 17.1425 19.7605C18.7991 19.3707 20.5531 19.0784 22.4045 18.8348C21.8199 19.7605 21.1865 20.735 20.6505 21.7581C20.0659 22.7813 19.5299 23.8045 18.994 24.7789ZM31.4668 11.5752C32.6362 12.842 33.7568 14.2062 34.8287 15.6191C33.7081 15.5704 32.5874 15.5217 31.4668 15.5217C30.3462 15.5217 29.2256 15.5704 28.105 15.6191C29.1769 14.2062 30.2975 12.842 31.4668 11.5752ZM42.2831 21.8068L40.5291 18.8835C42.3806 19.1271 44.1346 19.4195 45.7911 19.8092C45.2552 21.4171 44.6705 23.1223 43.9397 24.8276C43.4038 23.8045 42.8678 22.7813 42.2831 21.8068ZM15.7296 13.9139C14.9013 8.79804 15.5834 5.19261 17.581 4.02328C18.0683 3.73094 18.6529 3.58478 19.2863 3.58478C22.2096 3.58478 25.8638 5.97216 29.518 9.5776C27.8127 11.429 26.1074 13.5728 24.4509 15.9115C21.625 16.1551 18.9453 16.5936 16.4117 17.1295C16.1194 16.0089 15.9245 14.937 15.7296 13.9139ZM3.69524 28.0433C3.69524 25.7533 6.4724 23.3172 11.3446 21.5145C12.319 21.1247 13.3909 20.7837 14.4628 20.4914C15.2424 22.9275 16.2168 25.5097 17.3861 28.092C16.2168 30.6743 15.1937 33.2078 14.4628 35.6439C7.73917 33.695 3.69524 30.7717 3.69524 28.0433ZM17.581 52.0633C15.5834 50.8939 14.9013 47.2885 15.7296 42.1727C15.8758 41.1495 16.1194 40.0776 16.4117 38.957C18.9453 39.5417 21.625 39.9315 24.4509 40.1751C26.1074 42.5137 27.8127 44.6088 29.518 46.509C25.9125 50.0657 22.2584 52.5018 19.2863 52.5018C18.6529 52.5018 18.0683 52.3556 17.581 52.0633ZM47.2041 42.1727C48.0324 47.2885 47.3502 50.8939 45.3526 52.0633C44.8654 52.3556 44.2808 52.5018 43.6474 52.5018C40.724 52.5018 37.0699 50.1144 33.4157 46.509C35.121 44.6575 36.8263 42.5137 38.4828 40.1751C41.3087 39.9315 43.9884 39.493 46.522 38.957C46.8143 40.0776 47.0092 41.1495 47.2041 42.1727ZM51.5891 34.572C50.6146 34.9618 49.5427 35.3029 48.4709 35.5952C47.6913 33.1591 46.7169 30.5768 45.5475 27.9946C46.7169 25.4123 47.74 22.8787 48.4709 20.4426C55.1945 22.3915 59.2384 25.3148 59.2384 28.0433C59.2384 30.3332 56.4126 32.7693 51.5891 34.572Z" fill="white"/>
</svg>
