<svg width="47" height="50" viewBox="0 0 47 50" fill="none" xmlns="http://www.w3.org/2000/svg">
<path d="M19.9014 26.4554L26.5331 22.6172L33.0702 26.4554L26.5331 30.2324L19.9014 26.5456V26.4554Z" fill="#D7D7D7"/>
<path d="M0 15.0786L26.5332 0L46.2761 11.2294L39.7131 22.6168L26.5332 15.0786L6.63646 26.379L0 15.0786Z" fill="#D7D7D7"/>
<path d="M19.9018 41.534V34.0172L26.443 30.232L33.0706 26.455V34.0172L26.5335 37.774V45.2955L19.9018 49.1492V41.534ZM19.9018 26.455L13.2725 22.697L6.63672 26.3784V18.8465L26.5335 7.5376V22.6162L19.9018 26.455ZM39.6229 18.8468V15.0783L46.2764 11.2291L46.3429 18.7676L39.7134 22.6165L39.6229 18.8468Z" fill="white"/>
<path d="M13.2723 45.1566V22.6972L19.811 19.017L19.9015 26.4552L26.5332 30.1641V37.7742L19.9015 34.2423V49.1493L13.2723 45.1566ZM3.27046 24.4182L0 22.459V15.0788L6.63645 18.8473V26.3792L3.27046 24.4182ZM26.5332 15.0785V7.53809L39.6226 15.0785L39.7131 22.6167L26.5332 15.0785Z" fill="#7C7C7C"/>
</svg>
