<svg width="53" height="54" viewBox="0 0 53 54" fill="none" xmlns="http://www.w3.org/2000/svg">
<rect width="53" height="54" fill="#141F2F"/>
<path d="M0 27V54H53V0H0V27ZM42.7095 24.84C43.9789 25.1401 45.1327 25.8166 46.0252 26.784C46.5166 27.3052 46.9437 27.8855 47.2972 28.512C47.2972 28.5811 45.0076 30.1579 43.6126 31.0392C43.5618 31.0738 43.3582 30.8491 43.1335 30.5078C42.8789 30.0601 42.517 29.6855 42.0818 29.4188C41.6466 29.1521 41.1521 29.0022 40.6446 28.9829C39.0377 28.8706 38.0031 29.7302 38.0116 31.1429C37.9983 31.4946 38.0774 31.8435 38.2406 32.1538C38.5925 32.9011 39.2497 33.3461 41.3103 34.2533C45.1051 35.9165 46.729 37.0138 47.7382 38.5733C48.866 40.3013 49.1162 43.092 48.353 45.157C47.505 47.4034 45.4274 48.9283 42.489 49.4338C41.147 49.5904 39.7911 49.5759 38.4526 49.3906C36.4011 49.046 34.5114 48.0425 33.0593 46.5264C32.5717 45.9778 31.6219 44.5478 31.6813 44.4442C31.8361 44.3271 31.999 44.2217 32.1689 44.1288L34.132 43.0229L35.6542 42.1243L35.9722 42.6038C36.5088 43.386 37.1918 44.0525 37.9819 44.5651C39.6779 45.4723 41.993 45.347 43.1378 44.2973C43.5221 43.9126 43.7619 43.4028 43.8154 42.8565C43.8688 42.3103 43.7326 41.7623 43.4303 41.3078C43.0063 40.7074 42.1583 40.2019 39.7882 39.1478C37.0534 37.9469 35.8746 37.2038 34.7977 36.0202C34.1254 35.2391 33.629 34.3175 33.3434 33.3202C33.1303 32.1807 33.0988 31.0138 33.2501 29.8642C33.814 27.1728 35.7941 25.2936 38.6858 24.7363C40.0249 24.5675 41.3814 24.6054 42.7095 24.8486V24.84ZM30.2694 27.1037V29.3155H23.3878V49.2869H18.5076V29.3112H11.6091V27.1512C11.5876 26.4063 11.6046 25.6608 11.66 24.9178C11.6939 24.8789 15.9 24.8789 20.988 24.8789H30.2439L30.2694 27.1037Z" fill="white"/>
</svg>
